<?xml version="1.0" encoding="UTF-8" standalone="no"?>
<!-- Created with Inkscape (http://www.inkscape.org/) -->

<svg
   width="334"
   height="492"
   viewBox="0 0 88.370833 130.175"
   version="1.1"
   id="svg5"
   xml:space="preserve"
   inkscape:version="1.2.2 (b0a8486541, 2022-12-01)"
   sodipodi:docname="cosmos.svg"
   xmlns:inkscape="http://www.inkscape.org/namespaces/inkscape"
   xmlns:sodipodi="http://sodipodi.sourceforge.net/DTD/sodipodi-0.dtd"
   xmlns:xlink="http://www.w3.org/1999/xlink"
   xmlns="http://www.w3.org/2000/svg"
   xmlns:svg="http://www.w3.org/2000/svg"><sodipodi:namedview
     id="namedview7"
     pagecolor="#ffffff"
     bordercolor="#666666"
     borderopacity="1.0"
     inkscape:showpageshadow="2"
     inkscape:pageopacity="0.0"
     inkscape:pagecheckerboard="0"
     inkscape:deskcolor="#d1d1d1"
     inkscape:document-units="mm"
     showgrid="false"
     inkscape:zoom="0.92033185"
     inkscape:cx="-34.770067"
     inkscape:cy="299.34855"
     inkscape:window-width="1854"
     inkscape:window-height="1139"
     inkscape:window-x="0"
     inkscape:window-y="0"
     inkscape:window-maximized="1"
     inkscape:current-layer="layer1" /><defs
     id="defs2"><filter
       style="color-interpolation-filters:sRGB"
       id="filter4891"
       x="-0.21129203"
       y="-0.21181717"
       width="1.4225874"
       height="1.4264883"><feGaussianBlur
         stdDeviation="0.55189015"
         id="feGaussianBlur4889" /></filter><filter
       style="color-interpolation-filters:sRGB"
       id="filter4897"
       x="-0.1273214"
       y="-0.12651305"
       width="1.2546462"
       height="1.2558801"><feGaussianBlur
         stdDeviation="0.32949104"
         id="feGaussianBlur4895" /></filter><filter
       style="color-interpolation-filters:sRGB"
       id="filter4905"
       x="-0.1028339"
       y="-0.10163669"
       width="1.2056712"
       height="1.2061274"><feGaussianBlur
         stdDeviation="0.26463509"
         id="feGaussianBlur4903" /></filter><filter
       style="color-interpolation-filters:sRGB"
       id="filter4911"
       x="-0.1892983"
       y="-0.18947417"
       width="1.3786"
       height="1.3818023"><feGaussianBlur
         stdDeviation="0.493639"
         id="feGaussianBlur4909" /></filter><filter
       style="color-interpolation-filters:sRGB"
       id="filter4917"
       x="-0.071056792"
       y="-0.069354944"
       width="1.1421169"
       height="1.1415639"><feGaussianBlur
         stdDeviation="0.18047231"
         id="feGaussianBlur4915" /></filter><filter
       style="color-interpolation-filters:sRGB"
       id="filter4923"
       x="-0.042467107"
       y="-0.040311244"
       width="1.0849376"
       height="1.0834765"><feGaussianBlur
         stdDeviation="0.10475156"
         id="feGaussianBlur4921" /></filter><filter
       style="color-interpolation-filters:sRGB"
       id="filter4933"
       x="-0.059552259"
       y="-0.057667715"
       width="1.1191079"
       height="1.1181894"><feGaussianBlur
         stdDeviation="0.15000216"
         id="feGaussianBlur4931" /></filter><filter
       style="color-interpolation-filters:sRGB"
       id="filter4939"
       x="-0.031789054"
       y="-0.02946362"
       width="1.0635815"
       height="1.0617812"><feGaussianBlur
         stdDeviation="0.076470369"
         id="feGaussianBlur4937" /></filter><filter
       style="color-interpolation-filters:sRGB"
       id="filter4945"
       x="-0.1011018"
       y="-0.099877081"
       width="1.202207"
       height="1.2026081"><feGaussianBlur
         stdDeviation="0.26004756"
         id="feGaussianBlur4943" /></filter><filter
       style="color-interpolation-filters:sRGB"
       id="filter4951"
       x="-0.19773016"
       y="-0.19803993"
       width="1.3954637"
       height="1.3989338"><feGaussianBlur
         stdDeviation="0.51597108"
         id="feGaussianBlur4949" /></filter><filter
       style="color-interpolation-filters:sRGB"
       id="filter4959"
       x="-0.045594041"
       y="-0.043487834"
       width="1.0911914"
       height="1.0898296"><feGaussianBlur
         stdDeviation="0.11303335"
         id="feGaussianBlur4957" /></filter><filter
       style="color-interpolation-filters:sRGB"
       id="filter4969"
       x="-0.12460927"
       y="-0.12375786"
       width="1.2492219"
       height="1.2503697"><feGaussianBlur
         stdDeviation="0.32230788"
         id="feGaussianBlur4967" /></filter><filter
       style="color-interpolation-filters:sRGB"
       id="filter4979"
       x="-0.012929665"
       y="-0.010304736"
       width="1.0258627"
       height="1.0234635"><feGaussianBlur
         stdDeviation="0.026520631"
         id="feGaussianBlur4977" /></filter><filter
       style="color-interpolation-filters:sRGB"
       id="filter4985"
       x="-0.11326947"
       y="-0.11223797"
       width="1.2265423"
       height="1.2273299"><feGaussianBlur
         stdDeviation="0.29227404"
         id="feGaussianBlur4983" /></filter><filter
       style="color-interpolation-filters:sRGB"
       id="filter4995"
       x="-0.20214287"
       y="-0.20252272"
       width="1.4042891"
       height="1.4078994"><feGaussianBlur
         stdDeviation="0.52765826"
         id="feGaussianBlur4993" /></filter><filter
       style="color-interpolation-filters:sRGB"
       id="filter5003"
       x="-0.10200508"
       y="-0.1007947"
       width="1.2040135"
       height="1.2044434"><feGaussianBlur
         stdDeviation="0.2624399"
         id="feGaussianBlur5001" /></filter><filter
       style="color-interpolation-filters:sRGB"
       id="filter5011"
       x="-0.11359195"
       y="-0.11256557"
       width="1.2271873"
       height="1.2279851"><feGaussianBlur
         stdDeviation="0.29312813"
         id="feGaussianBlur5009" /></filter><filter
       style="color-interpolation-filters:sRGB"
       id="filter5023"
       x="-0.21155652"
       y="-0.21208587"
       width="1.4231164"
       height="1.4270257"><feGaussianBlur
         stdDeviation="0.55259064"
         id="feGaussianBlur5021" /></filter><filter
       style="color-interpolation-filters:sRGB"
       id="filter5031"
       x="-0.010582178"
       y="-0.0079199695"
       width="1.0211677"
       height="1.0186939"><feGaussianBlur
         stdDeviation="0.020303228"
         id="feGaussianBlur5029" /></filter><filter
       style="color-interpolation-filters:sRGB"
       id="filter5037"
       x="-0.21131851"
       y="-0.21184408"
       width="1.4226404"
       height="1.4265421"><feGaussianBlur
         stdDeviation="0.5519603"
         id="feGaussianBlur5035" /></filter><filter
       style="color-interpolation-filters:sRGB"
       id="filter5043"
       x="-0.22319898"
       y="-0.22391321"
       width="1.4464013"
       height="1.4506804"><feGaussianBlur
         stdDeviation="0.58342611"
         id="feGaussianBlur5041" /></filter><filter
       style="color-interpolation-filters:sRGB"
       id="filter5051"
       x="-0.20761018"
       y="-0.20807685"
       width="1.4152237"
       height="1.4190077"><feGaussianBlur
         stdDeviation="0.54213863"
         id="feGaussianBlur5049" /></filter><filter
       style="color-interpolation-filters:sRGB"
       id="filter5059"
       x="-0.20516992"
       y="-0.20559784"
       width="1.4103432"
       height="1.4140497"><feGaussianBlur
         stdDeviation="0.5356755"
         id="feGaussianBlur5057" /></filter><filter
       style="color-interpolation-filters:sRGB"
       id="filter5067"
       x="-0.10532247"
       y="-0.10416477"
       width="1.2106483"
       height="1.2111835"><feGaussianBlur
         stdDeviation="0.27122613"
         id="feGaussianBlur5065" /></filter><filter
       style="color-interpolation-filters:sRGB"
       id="filter5075"
       x="-0.065426752"
       y="-0.063635497"
       width="1.1308569"
       height="1.130125"><feGaussianBlur
         stdDeviation="0.16556096"
         id="feGaussianBlur5073" /></filter><filter
       style="color-interpolation-filters:sRGB"
       id="filter5085"
       x="-0.1680784"
       y="-0.16791729"
       width="1.3361602"
       height="1.3386886"><feGaussianBlur
         stdDeviation="0.43743737"
         id="feGaussianBlur5083" /></filter><filter
       style="color-interpolation-filters:sRGB"
       id="filter5091"
       x="-0.059489786"
       y="-0.05760425"
       width="1.1189829"
       height="1.1180625"><feGaussianBlur
         stdDeviation="0.14983671"
         id="feGaussianBlur5089" /></filter><filter
       style="color-interpolation-filters:sRGB"
       id="filter5113"
       x="-0.13466331"
       y="-0.13397156"
       width="1.26933"
       height="1.2707971"><feGaussianBlur
         stdDeviation="0.34893636"
         id="feGaussianBlur5111" /></filter><filter
       style="color-interpolation-filters:sRGB"
       id="filter5123"
       x="-0.21029484"
       y="-0.21080415"
       width="1.420593"
       height="1.4244623"><feGaussianBlur
         stdDeviation="0.54924906"
         id="feGaussianBlur5121" /></filter><filter
       style="color-interpolation-filters:sRGB"
       id="filter5129"
       x="-0.01656961"
       y="-0.014002484"
       width="1.0331426"
       height="1.0308589"><feGaussianBlur
         stdDeviation="0.036161148"
         id="feGaussianBlur5127" /></filter><filter
       style="color-interpolation-filters:sRGB"
       id="filter5137"
       x="-0.076653237"
       y="-0.075040263"
       width="1.1533098"
       height="1.1529345"><feGaussianBlur
         stdDeviation="0.1952947"
         id="feGaussianBlur5135" /></filter><filter
       style="color-interpolation-filters:sRGB"
       id="filter5155"
       x="-0.23265233"
       y="-0.23351669"
       width="1.465308"
       height="1.4698874"><feGaussianBlur
         stdDeviation="0.60846367"
         id="feGaussianBlur5153" /></filter><filter
       style="color-interpolation-filters:sRGB"
       id="filter5163"
       x="-0.22193642"
       y="-0.2226306"
       width="1.4438762"
       height="1.4481152"><feGaussianBlur
         stdDeviation="0.5800822"
         id="feGaussianBlur5161" /></filter><filter
       style="color-interpolation-filters:sRGB"
       id="filter5171"
       x="-0.22015069"
       y="-0.22081651"
       width="1.4403047"
       height="1.444487"><feGaussianBlur
         stdDeviation="0.57535262"
         id="feGaussianBlur5169" /></filter><filter
       style="color-interpolation-filters:sRGB"
       id="filter5187"
       x="-0.045516787"
       y="-0.043409354"
       width="1.0910369"
       height="1.0896727"><feGaussianBlur
         stdDeviation="0.11282874"
         id="feGaussianBlur5185" /></filter><filter
       style="color-interpolation-filters:sRGB"
       id="filter5209"
       x="-0.045859048"
       y="-0.043757051"
       width="1.0917215"
       height="1.0903681"><feGaussianBlur
         stdDeviation="0.11373523"
         id="feGaussianBlur5207" /></filter><filter
       style="color-interpolation-filters:sRGB"
       id="filter5215"
       x="-0.16082933"
       y="-0.1605531"
       width="1.321662"
       height="1.3239602"><feGaussianBlur
         stdDeviation="0.41823794"
         id="feGaussianBlur5213" /></filter><filter
       style="color-interpolation-filters:sRGB"
       id="filter5223"
       x="-0.079128666"
       y="-0.077555003"
       width="1.1582607"
       height="1.157964"><feGaussianBlur
         stdDeviation="0.20185095"
         id="feGaussianBlur5221" /></filter><filter
       style="color-interpolation-filters:sRGB"
       id="filter5229"
       x="-0.19157306"
       y="-0.19178505"
       width="1.3831495"
       height="1.3864241"><feGaussianBlur
         stdDeviation="0.49966376"
         id="feGaussianBlur5227" /></filter><filter
       style="color-interpolation-filters:sRGB"
       id="filter5237"
       x="-0.17609347"
       y="-0.17605964"
       width="1.3521903"
       height="1.3549733"><feGaussianBlur
         stdDeviation="0.45866554"
         id="feGaussianBlur5235" /></filter><filter
       style="color-interpolation-filters:sRGB"
       id="filter5243"
       x="-0.10760972"
       y="-0.10648835"
       width="1.2152228"
       height="1.2158307"><feGaussianBlur
         stdDeviation="0.27728401"
         id="feGaussianBlur5241" /></filter></defs><g
     inkscape:label="Layer 1"
     inkscape:groupmode="layer"
     id="layer1"><rect
       style="fill:#000000;stroke-width:9.88892;stroke-linecap:round;stroke-linejoin:round"
       id="rect421"
       width="88.370834"
       height="130.175"
       x="-3.5527137e-15"
       y="0"
       ry="0" /><path
       style="fill:#ffffff;stroke-width:0.038213"
       d="m 3.7125414,11.907528 c 0.062955,-0.09458 0.4531769,-0.668331 0.8671626,-1.275008 0.4139811,-0.606676 0.7470843,-1.1086583 0.7402297,-1.1155133 -0.00686,-0.0069 -0.3194041,0.06464 -0.6945502,0.158876 -0.3751459,0.09424 -0.6888599,0.164567 -0.6971369,0.156287 -0.00828,-0.0083 0.2867507,-0.132252 0.6556296,-0.275494 0.3688797,-0.143241 0.6572301,-0.273011 0.6407843,-0.288375 -0.016445,-0.01536 -0.6447385,-0.24741 -1.3962075,-0.515658 -0.7514679,-0.26825 -1.3605661,-0.493463 -1.3535544,-0.500476 0.00702,-0.007 0.6385461,0.167896 1.403399,0.388686 0.7648544,0.220792 1.4048242,0.396714 1.4221514,0.390938 0.017329,-0.0058 -0.094868,-0.207996 -0.2493177,-0.449378 -0.1544541,-0.241381 -0.3441664,-0.537752 -0.4215941,-0.6586 -0.077424,-0.12085 -0.1347437,-0.2197265 -0.127372,-0.2197265 0.00737,0 0.2344376,0.2665365 0.504592,0.5923025 0.2701603,0.325768 0.5025485,0.592303 0.5164206,0.592303 0.013878,0 0.038163,-0.451392 0.05397,-1.003093 0.015806,-0.5517017 0.039567,-1.2524347 0.052793,-1.5571838 l 0.024047,-0.5540901 0.028048,0.7451555 c 0.015424,0.4098358 0.039429,1.1105682 0.053348,1.5571844 0.01393,0.446615 0.0361,0.812027 0.04931,0.812027 0.0132,0 0.24503,-0.266535 0.515189,-0.592303 0.270154,-0.325766 0.496575,-0.5923025 0.503154,-0.5923025 0.0066,0 -0.177067,0.2963835 -0.408107,0.6586295 -0.231036,0.362248 -0.406174,0.663262 -0.389193,0.668923 0.01698,0.0057 0.656845,-0.17034 1.421918,-0.391111 0.765075,-0.220772 1.3967,-0.395747 1.403608,-0.388836 0.0069,0.0069 -0.60212,0.232166 -1.353408,0.500565 -0.751284,0.2684 -1.379428,0.500596 -1.395874,0.515989 -0.01645,0.01539 0.271904,0.145189 0.640782,0.28843 0.36888,0.143242 0.663912,0.267215 0.655631,0.275494 -0.0083,0.0083 -0.321991,-0.06205 -0.697137,-0.156287 -0.375145,-0.09424 -0.688074,-0.165352 -0.695394,-0.158033 -0.0073,0.0073 0.325808,0.5093003 0.740283,1.1155133 1.232968,1.803351 1.233182,1.801295 -0.02021,0.195003 -0.487738,-0.625065 -0.90011,-1.1447123 -0.916385,-1.1547703 -0.01627,-0.01007 -0.04085,0.166039 -0.05462,0.3913263 -0.054023,0.884335 -0.073968,1.156044 -0.084096,1.145916 -0.00579,-0.0058 -0.031875,-0.358008 -0.05794,-0.782679 -0.026059,-0.42467 -0.06111,-0.7636443 -0.07789,-0.7532743 -0.01678,0.01037 -0.4291796,0.5298543 -0.9164413,1.1544083 -0.901085,1.15497 -1.0907209,1.385745 -0.8860209,1.078235 z"
       id="path320"
       sodipodi:nodetypes="sssssssssssssssssscsssssssscssssssssccsssss"
       inkscape:tile-cx="5.6530797"
       inkscape:tile-cy="8.9028831"
       inkscape:tile-w="6.3564822"
       inkscape:tile-h="6.2571167"
       inkscape:tile-x0="2.4748387"
       inkscape:tile-y0="5.7743248" /><use
       x="0"
       y="0"
       inkscape:tiled-clone-of="#path320"
       xlink:href="#path320"
       transform="matrix(0.45851312,0.21413864,-0.21413864,0.45851312,1.9295952,4.7467275)"
       fill="#423751"
       stroke="#423751"
       id="use4883" /><use
       x="0"
       y="0"
       inkscape:tiled-clone-of="#path320"
       xlink:href="#path320"
       transform="matrix(0.22268611,-1.0786008,1.0786008,0.22268611,-6.1239575,27.29163)"
       fill="#423751"
       stroke="#423751"
       id="use4885" /><use
       x="0"
       y="0"
       inkscape:tiled-clone-of="#path320"
       xlink:href="#path320"
       transform="matrix(1.2067383,-0.44455453,0.44455453,1.2067383,-5.8734195,24.273793)"
       fill="#423751"
       stroke="#423751"
       id="use4887"
       style="filter:url(#filter4891)" /><use
       x="0"
       y="0"
       inkscape:tiled-clone-of="#path320"
       xlink:href="#path320"
       transform="matrix(-0.30012471,0.41623872,-0.41623872,-0.30012471,8.5676134,49.841684)"
       opacity="0.97302226"
       fill="#423751"
       stroke="#423751"
       id="use4893"
       style="filter:url(#filter4897)" /><use
       x="0"
       y="0"
       inkscape:tiled-clone-of="#path320"
       xlink:href="#path320"
       transform="matrix(0.10773406,-1.2318016,1.2318016,0.10773406,-3.0100334,68.090907)"
       opacity="0.89009919"
       fill="#423751"
       stroke="#423751"
       id="use4899" /><use
       x="0"
       y="0"
       inkscape:tiled-clone-of="#path320"
       xlink:href="#path320"
       transform="matrix(0.5430257,-1.2386513,1.2386513,0.5430257,-10.942114,71.143692)"
       fill="#423751"
       stroke="#423751"
       id="use4901"
       style="filter:url(#filter4905)" /><use
       x="0"
       y="0"
       inkscape:tiled-clone-of="#path320"
       xlink:href="#path320"
       transform="matrix(-0.26448559,0.68762159,-0.68762159,-0.26448559,14.481681,82.013526)"
       opacity="0.83207342"
       fill="#423751"
       stroke="#423751"
       id="use4907"
       style="filter:url(#filter4911)" /><use
       x="0"
       y="0"
       inkscape:tiled-clone-of="#path320"
       xlink:href="#path320"
       transform="matrix(1.0904739,0.71308138,-0.71308138,1.0904739,7.4066223,84.599464)"
       fill="#423751"
       stroke="#423751"
       id="use4913"
       style="filter:url(#filter4917)" /><use
       x="0"
       y="0"
       inkscape:tiled-clone-of="#path320"
       xlink:href="#path320"
       transform="matrix(-0.18570832,-1.1616364,1.1616364,-0.18570832,-3.3074877,117.26551)"
       opacity="0.92191748"
       fill="#423751"
       stroke="#423751"
       id="use4919"
       style="filter:url(#filter4923)" /><use
       x="0"
       y="0"
       inkscape:tiled-clone-of="#path320"
       xlink:href="#path320"
       transform="matrix(0.77120005,0.63626356,-0.63626356,0.77120005,9.0102157,110.15155)"
       fill="#423751"
       stroke="#423751"
       id="use4925" /><use
       x="0"
       y="0"
       inkscape:tiled-clone-of="#path320"
       xlink:href="#path320"
       transform="matrix(-1.2460856,-0.10931059,0.10931059,-1.2460856,21.581547,23.538587)"
       fill="#423751"
       stroke="#423751"
       id="use4927" /><use
       x="0"
       y="0"
       inkscape:tiled-clone-of="#path320"
       xlink:href="#path320"
       transform="matrix(-1.0575041,0.28115437,-0.28115437,-1.0575041,22.363414,30.503508)"
       opacity="0.96424953"
       fill="#423751"
       stroke="#423751"
       id="use4929"
       style="filter:url(#filter4933)" /><use
       x="0"
       y="0"
       inkscape:tiled-clone-of="#path320"
       xlink:href="#path320"
       transform="matrix(0.30263555,0.67082108,-0.67082108,0.30263555,17.405464,27.69284)"
       fill="#423751"
       stroke="#423751"
       id="use4935"
       style="filter:url(#filter4939)" /><use
       x="0"
       y="0"
       inkscape:tiled-clone-of="#path320"
       xlink:href="#path320"
       transform="matrix(0.06636731,0.59637179,-0.59637179,0.06636731,17.354416,41.536237)"
       fill="#423751"
       stroke="#423751"
       id="use4941"
       style="filter:url(#filter4945)" /><use
       x="0"
       y="0"
       inkscape:tiled-clone-of="#path320"
       xlink:href="#path320"
       transform="matrix(-0.40069043,0.38667873,-0.38667873,-0.40069043,17.29685,59.191595)"
       fill="#423751"
       stroke="#423751"
       id="use4947"
       style="filter:url(#filter4951)" /><use
       x="0"
       y="0"
       inkscape:tiled-clone-of="#path320"
       xlink:href="#path320"
       transform="matrix(1.09328,0.66614154,-0.66614154,1.09328,14.522526,59.790175)"
       opacity="0.9496384"
       fill="#423751"
       stroke="#423751"
       id="use4953" /><use
       x="0"
       y="0"
       inkscape:tiled-clone-of="#path320"
       xlink:href="#path320"
       transform="matrix(-0.04147112,-0.82858797,0.82858797,-0.04147112,9.4035606,88.08587)"
       fill="#423751"
       stroke="#423751"
       id="use4955"
       style="filter:url(#filter4959)" /><use
       x="0"
       y="0"
       inkscape:tiled-clone-of="#path320"
       xlink:href="#path320"
       transform="matrix(0.75095999,0.02209643,-0.02209643,0.75095999,11.114595,87.19153)"
       fill="#423751"
       stroke="#423751"
       id="use4961" /><use
       x="0"
       y="0"
       inkscape:tiled-clone-of="#path320"
       xlink:href="#path320"
       transform="matrix(-0.85078978,-0.38009596,0.38009596,-0.85078978,12.388478,117.17913)"
       opacity="0.99866134"
       fill="#423751"
       stroke="#423751"
       id="use4963" /><use
       x="0"
       y="0"
       inkscape:tiled-clone-of="#path320"
       xlink:href="#path320"
       transform="matrix(0.91402036,-0.23667309,0.23667309,0.91402036,8.733724,115.35613)"
       opacity="0.9629448"
       fill="#423751"
       stroke="#423751"
       id="use4965"
       style="filter:url(#filter4969)" /><use
       x="0"
       y="0"
       inkscape:tiled-clone-of="#path320"
       xlink:href="#path320"
       transform="matrix(0.04536703,-0.57888785,0.57888785,0.04536703,18.039725,13.431169)"
       fill="#423751"
       stroke="#423751"
       id="use4971" /><use
       x="0"
       y="0"
       inkscape:tiled-clone-of="#path320"
       xlink:href="#path320"
       transform="matrix(0.53461185,0.96193134,-0.96193134,0.53461185,29.630448,13.229858)"
       opacity="0.91464625"
       fill="#423751"
       stroke="#423751"
       id="use4973" /><use
       x="0"
       y="0"
       inkscape:tiled-clone-of="#path320"
       xlink:href="#path320"
       transform="matrix(-1.2964017,-0.74961653,0.74961653,-1.2964017,22.946509,52.837451)"
       opacity="0.92433569"
       fill="#423751"
       stroke="#423751"
       id="use4975"
       style="filter:url(#filter4979)" /><use
       x="0"
       y="0"
       inkscape:tiled-clone-of="#path320"
       xlink:href="#path320"
       transform="matrix(-0.72634759,-0.02119755,0.02119755,-0.72634759,28.823942,50.145181)"
       fill="#423751"
       stroke="#423751"
       id="use4981"
       style="filter:url(#filter4985)" /><use
       x="0"
       y="0"
       inkscape:tiled-clone-of="#path320"
       xlink:href="#path320"
       transform="matrix(1.1929868,0.27699247,-0.27699247,1.1929868,17.544724,45.844558)"
       fill="#423751"
       stroke="#423751"
       id="use4987" /><use
       x="0"
       y="0"
       inkscape:tiled-clone-of="#path320"
       xlink:href="#path320"
       transform="matrix(1.3780099,0.03593507,-0.03593507,1.3780099,13.683136,59.480133)"
       fill="#423751"
       stroke="#423751"
       id="use4989" /><use
       x="0"
       y="0"
       inkscape:tiled-clone-of="#path320"
       xlink:href="#path320"
       transform="matrix(-0.71927733,1.1077263,-1.1077263,-0.71927733,38.80935,86.07942)"
       fill="#423751"
       stroke="#423751"
       id="use4991"
       style="filter:url(#filter4995)" /><use
       x="0"
       y="0"
       inkscape:tiled-clone-of="#path320"
       xlink:href="#path320"
       transform="matrix(0.74527771,0.63451236,-0.63451236,0.74527771,22.50625,87.300746)"
       opacity="0.85674016"
       fill="#423751"
       stroke="#423751"
       id="use4997" /><use
       x="0"
       y="0"
       inkscape:tiled-clone-of="#path320"
       xlink:href="#path320"
       transform="matrix(0.51881425,0.60419348,-0.60419348,0.51881425,26.586143,98.60094)"
       opacity="0.85395832"
       fill="#423751"
       stroke="#423751"
       id="use4999"
       style="filter:url(#filter5003)" /><use
       x="0"
       y="0"
       inkscape:tiled-clone-of="#path320"
       xlink:href="#path320"
       transform="matrix(-1.140713,-0.04226894,0.04226894,-1.140713,31.162323,130.1969)"
       opacity="0.88180315"
       fill="#423751"
       stroke="#423751"
       id="use5005" /><use
       x="0"
       y="0"
       inkscape:tiled-clone-of="#path320"
       xlink:href="#path320"
       transform="matrix(1.0862325,0.90634902,-0.90634902,1.0862325,33.913876,-5.8796103)"
       opacity="0.83164991"
       fill="#423751"
       stroke="#423751"
       id="use5007"
       style="filter:url(#filter5011)" /><use
       x="0"
       y="0"
       inkscape:tiled-clone-of="#path320"
       xlink:href="#path320"
       transform="matrix(-1.3195925,-0.63228368,0.63228368,-1.3195925,31.815596,38.604504)"
       fill="#423751"
       stroke="#423751"
       id="use5013" /><use
       x="0"
       y="0"
       inkscape:tiled-clone-of="#path320"
       xlink:href="#path320"
       transform="matrix(-0.40327431,1.2189239,-1.2189239,-0.40327431,40.397471,29.913836)"
       opacity="0.88213536"
       fill="#423751"
       stroke="#423751"
       id="use5015" /><use
       x="0"
       y="0"
       inkscape:tiled-clone-of="#path320"
       xlink:href="#path320"
       transform="matrix(0.39164584,-1.0322464,1.0322464,0.39164584,17.508707,51.355126)"
       opacity="0.9630174"
       fill="#423751"
       stroke="#423751"
       id="use5017" /><use
       x="0"
       y="0"
       inkscape:tiled-clone-of="#path320"
       xlink:href="#path320"
       transform="matrix(0.33682791,-0.85802903,0.85802903,0.33682791,21.210094,60.298626)"
       opacity="0.83632382"
       fill="#423751"
       stroke="#423751"
       id="use5019"
       style="filter:url(#filter5023)" /><use
       x="0"
       y="0"
       inkscape:tiled-clone-of="#path320"
       xlink:href="#path320"
       transform="matrix(-0.44574388,-0.94148799,0.94148799,-0.44574388,22.233186,78.155561)"
       opacity="0.83072061"
       fill="#423751"
       stroke="#423751"
       id="use5025" /><use
       x="0"
       y="0"
       inkscape:tiled-clone-of="#path320"
       xlink:href="#path320"
       transform="matrix(0.15123157,-0.88393893,0.88393893,0.15123157,24.525378,89.98195)"
       opacity="0.96151227"
       fill="#423751"
       stroke="#423751"
       id="use5027"
       style="filter:url(#filter5031)" /><use
       x="0"
       y="0"
       inkscape:tiled-clone-of="#path320"
       xlink:href="#path320"
       transform="matrix(0.56484928,-0.91321588,0.91321588,0.56484928,17.700009,95.836668)"
       opacity="0.99732489"
       fill="#423751"
       stroke="#423751"
       id="use5033"
       style="filter:url(#filter5037)" /><use
       x="0"
       y="0"
       inkscape:tiled-clone-of="#path320"
       xlink:href="#path320"
       transform="matrix(1.1484921,0.44348112,-0.44348112,1.1484921,27.554687,98.181978)"
       fill="#423751"
       stroke="#423751"
       id="use5039"
       style="filter:url(#filter5043)" /><use
       x="0"
       y="0"
       inkscape:tiled-clone-of="#path320"
       xlink:href="#path320"
       transform="matrix(0.52643518,-0.18521486,0.18521486,0.52643518,26.408355,115.61661)"
       opacity="0.93613201"
       fill="#423751"
       stroke="#423751"
       id="use5045" /><use
       x="0"
       y="0"
       inkscape:tiled-clone-of="#path320"
       xlink:href="#path320"
       transform="matrix(-1.10926,-0.75114978,0.75114978,-1.10926,39.193157,24.888424)"
       fill="#423751"
       stroke="#423751"
       id="use5047"
       style="filter:url(#filter5051)" /><use
       x="0"
       y="0"
       inkscape:tiled-clone-of="#path320"
       xlink:href="#path320"
       transform="matrix(-0.23896981,-0.60360565,0.60360565,-0.23896981,37.283213,26.830613)"
       opacity="0.94633225"
       fill="#423751"
       stroke="#423751"
       id="use5053" /><use
       x="0"
       y="0"
       inkscape:tiled-clone-of="#path320"
       xlink:href="#path320"
       transform="matrix(0.75866759,-0.33203495,0.33203495,0.75866759,34.146229,29.540122)"
       fill="#423751"
       stroke="#423751"
       id="use5055"
       style="filter:url(#filter5059)" /><use
       x="0"
       y="0"
       inkscape:tiled-clone-of="#path320"
       xlink:href="#path320"
       transform="matrix(-1.1388917,-0.19466788,0.19466788,-1.1388917,41.270748,55.602277)"
       opacity="0.88738286"
       fill="#423751"
       stroke="#423751"
       id="use5061" /><use
       x="0"
       y="0"
       inkscape:tiled-clone-of="#path320"
       xlink:href="#path320"
       transform="matrix(0.32290377,-1.3359296,1.3359296,0.32290377,22.458355,61.662448)"
       opacity="0.94646807"
       fill="#423751"
       stroke="#423751"
       id="use5063"
       style="filter:url(#filter5067)" /><use
       x="0"
       y="0"
       inkscape:tiled-clone-of="#path320"
       xlink:href="#path320"
       transform="matrix(0.1334635,-0.71886459,0.71886459,0.1334635,29.059472,77.448327)"
       opacity="0.89241464"
       fill="#423751"
       stroke="#423751"
       id="use5069" /><use
       x="0"
       y="0"
       inkscape:tiled-clone-of="#path320"
       xlink:href="#path320"
       transform="matrix(-0.4594886,-0.79006715,0.79006715,-0.4594886,37.277274,92.701672)"
       opacity="0.83508812"
       fill="#423751"
       stroke="#423751"
       id="use5071"
       style="filter:url(#filter5075)" /><use
       x="0"
       y="0"
       inkscape:tiled-clone-of="#path320"
       xlink:href="#path320"
       transform="matrix(0.71068333,1.2549633,-1.2549633,0.71068333,44.804002,82.268216)"
       fill="#423751"
       stroke="#423751"
       id="use5077" /><use
       x="0"
       y="0"
       inkscape:tiled-clone-of="#path320"
       xlink:href="#path320"
       transform="matrix(-0.36508422,-0.50229564,0.50229564,-0.36508422,34.063348,115.83045)"
       opacity="0.84794761"
       fill="#423751"
       stroke="#423751"
       id="use5079" /><use
       x="0"
       y="0"
       inkscape:tiled-clone-of="#path320"
       xlink:href="#path320"
       transform="matrix(-0.35927624,0.44058431,-0.44058431,-0.35927624,43.250835,122.19472)"
       opacity="0.8376365"
       fill="#423751"
       stroke="#423751"
       id="use5081"
       style="filter:url(#filter5085)" /><use
       x="0"
       y="0"
       inkscape:tiled-clone-of="#path320"
       xlink:href="#path320"
       transform="matrix(0.34712306,1.0854222,-1.0854222,0.34712306,55.605169,2.3067541)"
       opacity="0.99201049"
       fill="#423751"
       stroke="#423751"
       id="use5087"
       style="filter:url(#filter5091)" /><use
       x="0"
       y="0"
       inkscape:tiled-clone-of="#path320"
       xlink:href="#path320"
       transform="matrix(-0.97365839,0.19925543,-0.19925543,-0.97365839,54.634829,31.265059)"
       fill="#423751"
       stroke="#423751"
       id="use5093" /><use
       x="0"
       y="0"
       inkscape:tiled-clone-of="#path320"
       xlink:href="#path320"
       transform="matrix(-0.71160058,-0.12299383,0.12299383,-0.71160058,52.150172,38.298986)"
       fill="#423751"
       stroke="#423751"
       id="use5095" /><use
       x="0"
       y="0"
       inkscape:tiled-clone-of="#path320"
       xlink:href="#path320"
       transform="matrix(-0.22707356,0.58145962,-0.58145962,-0.22707356,55.989488,43.832147)"
       opacity="0.92529954"
       fill="#423751"
       stroke="#423751"
       id="use5097" /><use
       x="0"
       y="0"
       inkscape:tiled-clone-of="#path320"
       xlink:href="#path320"
       transform="matrix(-0.2885353,-0.55301796,0.55301796,-0.2885353,44.393016,67.007458)"
       opacity="0.89733151"
       fill="#423751"
       stroke="#423751"
       id="use5099" /><use
       x="0"
       y="0"
       inkscape:tiled-clone-of="#path320"
       xlink:href="#path320"
       transform="matrix(-0.02393074,1.1782014,-1.1782014,-0.02393074,56.332662,67.539862)"
       opacity="0.98378217"
       fill="#423751"
       stroke="#423751"
       id="use5101" /><use
       x="0"
       y="0"
       inkscape:tiled-clone-of="#path320"
       xlink:href="#path320"
       transform="matrix(-1.3121897,-0.59147891,0.59147891,-1.3121897,47.811502,100.52288)"
       fill="#423751"
       stroke="#423751"
       id="use5103" /><use
       x="0"
       y="0"
       inkscape:tiled-clone-of="#path320"
       xlink:href="#path320"
       transform="matrix(-0.13155393,-0.80852911,0.80852911,-0.13155393,37.441589,99.502381)"
       opacity="0.98741997"
       fill="#423751"
       stroke="#423751"
       id="use5105" /><use
       x="0"
       y="0"
       inkscape:tiled-clone-of="#path320"
       xlink:href="#path320"
       transform="matrix(1.2110161,-0.1530334,0.1530334,1.2110161,37.493051,99.184992)"
       fill="#423751"
       stroke="#423751"
       id="use5107" /><use
       x="0"
       y="0"
       inkscape:tiled-clone-of="#path320"
       xlink:href="#path320"
       transform="matrix(-0.14529183,0.48262204,-0.48262204,-0.14529183,51.375291,122.13653)"
       fill="#423751"
       stroke="#423751"
       id="use5109"
       style="filter:url(#filter5113)" /><use
       x="0"
       y="0"
       inkscape:tiled-clone-of="#path320"
       xlink:href="#path320"
       transform="matrix(0.95563833,-0.03086983,0.03086983,0.95563833,47.220044,0.92241998)"
       fill="#423751"
       stroke="#423751"
       id="use5115" /><use
       x="0"
       y="0"
       inkscape:tiled-clone-of="#path320"
       xlink:href="#path320"
       transform="matrix(0.19335546,1.2456031,-1.2456031,0.19335546,65.805288,11.768063)"
       fill="#423751"
       stroke="#423751"
       id="use5117" /><use
       x="0"
       y="0"
       inkscape:tiled-clone-of="#path320"
       xlink:href="#path320"
       transform="matrix(0.01308052,0.93658522,-0.93658522,0.01308052,64.377807,28.860693)"
       fill="#423751"
       stroke="#423751"
       id="use5119"
       style="filter:url(#filter5123)" /><use
       x="0"
       y="0"
       inkscape:tiled-clone-of="#path320"
       xlink:href="#path320"
       transform="matrix(0.94995962,0.4175698,-0.4175698,0.94995962,50.682532,37.64812)"
       opacity="0.88224538"
       fill="#423751"
       stroke="#423751"
       id="use5125"
       style="filter:url(#filter5129)" /><use
       x="0"
       y="0"
       inkscape:tiled-clone-of="#path320"
       xlink:href="#path320"
       transform="matrix(-1.0898253,0.96294694,-0.96294694,-1.0898253,71.307233,62.845982)"
       fill="#423751"
       stroke="#423751"
       id="use5131" /><use
       x="0"
       y="0"
       inkscape:tiled-clone-of="#path320"
       xlink:href="#path320"
       transform="matrix(0.02999637,-1.1681156,1.1681156,0.02999637,42.824011,77.728538)"
       opacity="0.83949432"
       fill="#423751"
       stroke="#423751"
       id="use5133"
       style="filter:url(#filter5137)" /><use
       x="0"
       y="0"
       inkscape:tiled-clone-of="#path320"
       xlink:href="#path320"
       transform="matrix(0.54002479,0.02284034,-0.02284034,0.54002479,50.149019,78.210747)"
       opacity="0.85219696"
       fill="#423751"
       stroke="#423751"
       id="use5139" /><use
       x="0"
       y="0"
       inkscape:tiled-clone-of="#path320"
       xlink:href="#path320"
       transform="matrix(-0.45519723,-0.35603126,0.35603126,-0.45519723,54.829684,100.06253)"
       opacity="0.98510456"
       fill="#423751"
       stroke="#423751"
       id="use5141" /><use
       x="0"
       y="0"
       inkscape:tiled-clone-of="#path320"
       xlink:href="#path320"
       transform="matrix(-0.60631879,0.27028185,-0.27028185,-0.60631879,64.156173,109.81739)"
       fill="#423751"
       stroke="#423751"
       id="use5143" /><use
       x="0"
       y="0"
       inkscape:tiled-clone-of="#path320"
       xlink:href="#path320"
       transform="matrix(-0.23842076,-0.5002934,0.5002934,-0.23842076,55.253451,125.00516)"
       opacity="0.92104243"
       fill="#423751"
       stroke="#423751"
       id="use5145" /><use
       x="0"
       y="0"
       inkscape:tiled-clone-of="#path320"
       xlink:href="#path320"
       transform="matrix(0.53042073,-0.26860279,0.26860279,0.53042073,58.14623,7.1827747)"
       opacity="0.87971655"
       fill="#423751"
       stroke="#423751"
       id="use5147" /><use
       x="0"
       y="0"
       inkscape:tiled-clone-of="#path320"
       xlink:href="#path320"
       transform="matrix(0.73262656,0.136494,-0.136494,0.73262656,59.555652,16.872997)"
       opacity="0.91610461"
       fill="#423751"
       stroke="#423751"
       id="use5149" /><use
       x="0"
       y="0"
       inkscape:tiled-clone-of="#path320"
       xlink:href="#path320"
       transform="matrix(-0.91830071,-0.99956122,0.99956122,-0.91830071,62.212332,49.269072)"
       opacity="0.8148081"
       fill="#423751"
       stroke="#423751"
       id="use5151"
       style="filter:url(#filter5155)" /><use
       x="0"
       y="0"
       inkscape:tiled-clone-of="#path320"
       xlink:href="#path320"
       transform="matrix(-2.4739554e-4,-0.73601323,0.73601323,-2.4739554e-4,59.039175,52.405203)"
       fill="#423751"
       stroke="#423751"
       id="use5157" /><use
       x="0"
       y="0"
       inkscape:tiled-clone-of="#path320"
       xlink:href="#path320"
       transform="matrix(-0.48960247,-0.11422939,0.11422939,-0.48960247,65.015097,62.029288)"
       fill="#423751"
       stroke="#423751"
       id="use5159"
       style="filter:url(#filter5163)" /><use
       x="0"
       y="0"
       inkscape:tiled-clone-of="#path320"
       xlink:href="#path320"
       transform="matrix(0.45756846,0.56714299,-0.56714299,0.45756846,63.030489,64.431055)"
       opacity="0.80041202"
       fill="#423751"
       stroke="#423751"
       id="use5165" /><use
       x="0"
       y="0"
       inkscape:tiled-clone-of="#path320"
       xlink:href="#path320"
       transform="matrix(-0.55556942,0.39909038,-0.39909038,-0.55556942,68.880194,88.754201)"
       opacity="0.945932"
       fill="#423751"
       stroke="#423751"
       id="use5167"
       style="filter:url(#filter5171)" /><use
       x="0"
       y="0"
       inkscape:tiled-clone-of="#path320"
       xlink:href="#path320"
       transform="matrix(0.62447646,-0.1877798,0.1877798,0.62447646,61.418494,89.480633)"
       fill="#423751"
       stroke="#423751"
       id="use5173" /><use
       x="0"
       y="0"
       inkscape:tiled-clone-of="#path320"
       xlink:href="#path320"
       transform="matrix(1.002736,0.54367026,-0.54367026,1.002736,61.576171,96.201624)"
       fill="#423751"
       stroke="#423751"
       id="use5175" /><use
       x="0"
       y="0"
       inkscape:tiled-clone-of="#path320"
       xlink:href="#path320"
       transform="matrix(0.97722201,0.2980602,-0.2980602,0.97722201,60.374168,112.34618)"
       opacity="0.93971189"
       fill="#423751"
       stroke="#423751"
       id="use5177" /><use
       x="0"
       y="0"
       inkscape:tiled-clone-of="#path320"
       xlink:href="#path320"
       transform="matrix(-0.41843236,0.35287567,-0.35287567,-0.41843236,74.424653,10.562787)"
       opacity="0.88043269"
       fill="#423751"
       stroke="#423751"
       id="use5179" /><use
       x="0"
       y="0"
       inkscape:tiled-clone-of="#path320"
       xlink:href="#path320"
       transform="matrix(1.0669062,0.52441169,-0.52441169,1.0669062,71.349413,7.2376469)"
       fill="#423751"
       stroke="#423751"
       id="use5181" /><use
       x="0"
       y="0"
       inkscape:tiled-clone-of="#path320"
       xlink:href="#path320"
       transform="matrix(0.13659962,0.7389553,-0.7389553,0.13659962,78.381595,29.903605)"
       fill="#423751"
       stroke="#423751"
       id="use5183"
       style="filter:url(#filter5187)" /><use
       x="0"
       y="0"
       inkscape:tiled-clone-of="#path320"
       xlink:href="#path320"
       transform="matrix(-1.2296681,0.53252103,-0.53252103,-1.2296681,81.544145,53.984142)"
       fill="#423751"
       stroke="#423751"
       id="use5189" /><use
       x="0"
       y="0"
       inkscape:tiled-clone-of="#path320"
       xlink:href="#path320"
       transform="matrix(-0.40532698,1.1732937,-1.1732937,-0.40532698,85.325936,58.811089)"
       opacity="0.93148498"
       fill="#423751"
       stroke="#423751"
       id="use5191" /><use
       x="0"
       y="0"
       inkscape:tiled-clone-of="#path320"
       xlink:href="#path320"
       transform="matrix(0.85006991,-0.71767859,0.71767859,0.85006991,58.789682,68.924567)"
       opacity="0.96770212"
       fill="#423751"
       stroke="#423751"
       id="use5193" /><use
       x="0"
       y="0"
       inkscape:tiled-clone-of="#path320"
       xlink:href="#path320"
       transform="matrix(1.1379611,0.78473923,-0.78473923,1.1379611,72.953355,72.120671)"
       fill="#423751"
       stroke="#423751"
       id="use5195" /><use
       x="0"
       y="0"
       inkscape:tiled-clone-of="#path320"
       xlink:href="#path320"
       transform="matrix(0.51718521,-0.09885562,0.09885562,0.51718521,67.552828,90.110301)"
       fill="#423751"
       stroke="#423751"
       id="use5197" /><use
       x="0"
       y="0"
       inkscape:tiled-clone-of="#path320"
       xlink:href="#path320"
       transform="matrix(-0.61217225,-1.2258501,1.2258501,-0.61217225,63.091165,120.58806)"
       fill="#423751"
       stroke="#423751"
       id="use5199" /><use
       x="0"
       y="0"
       inkscape:tiled-clone-of="#path320"
       xlink:href="#path320"
       transform="matrix(0.03229254,-0.87727742,0.87727742,0.03229254,63.595088,126.574)"
       fill="#423751"
       stroke="#423751"
       id="use5201" /><use
       x="0"
       y="0"
       inkscape:tiled-clone-of="#path320"
       xlink:href="#path320"
       transform="matrix(0.55023506,-0.08037716,0.08037716,0.55023506,74.43953,1.8143612)"
       opacity="0.89994022"
       fill="#423751"
       stroke="#423751"
       id="use5203" /><use
       x="0"
       y="0"
       inkscape:tiled-clone-of="#path320"
       xlink:href="#path320"
       transform="matrix(-1.0756383,-0.59624177,0.59624177,-1.0756383,79.144459,31.973225)"
       fill="#423751"
       stroke="#423751"
       id="use5205"
       style="filter:url(#filter5209)" /><use
       x="0"
       y="0"
       inkscape:tiled-clone-of="#path320"
       xlink:href="#path320"
       transform="matrix(-0.90861274,0.76544701,-0.76544701,-0.90861274,89.840952,35.349723)"
       opacity="0.93120586"
       fill="#423751"
       stroke="#423751"
       id="use5211"
       style="filter:url(#filter5215)" /><use
       x="0"
       y="0"
       inkscape:tiled-clone-of="#path320"
       xlink:href="#path320"
       transform="matrix(1.3979188,-0.32625058,0.32625058,1.3979188,70.151581,36.951345)"
       fill="#423751"
       stroke="#423751"
       id="use5217" /><use
       x="0"
       y="0"
       inkscape:tiled-clone-of="#path320"
       xlink:href="#path320"
       transform="matrix(-0.64409419,0.54330613,-0.54330613,-0.64409419,87.336815,59.125622)"
       opacity="0.92567166"
       fill="#423751"
       stroke="#423751"
       id="use5219"
       style="filter:url(#filter5223)" /><use
       x="0"
       y="0"
       inkscape:tiled-clone-of="#path320"
       xlink:href="#path320"
       transform="matrix(0.8559483,-0.09963687,0.09963687,0.8559483,72.149552,62.665073)"
       fill="#423751"
       stroke="#423751"
       id="use5225"
       style="filter:url(#filter5229)" /><use
       x="0"
       y="0"
       inkscape:tiled-clone-of="#path320"
       xlink:href="#path320"
       transform="matrix(-1.0796634,0.55749916,-0.55749916,-1.0796634,88.369598,91.962343)"
       opacity="0.94172551"
       fill="#423751"
       stroke="#423751"
       id="use5231" /><use
       x="0"
       y="0"
       inkscape:tiled-clone-of="#path320"
       xlink:href="#path320"
       transform="matrix(-1.0468257,-0.41993269,0.41993269,-1.0468257,82.890574,110.09959)"
       opacity="0.94161066"
       fill="#423751"
       stroke="#423751"
       id="use5233"
       style="filter:url(#filter5237)" /><use
       x="0"
       y="0"
       inkscape:tiled-clone-of="#path320"
       xlink:href="#path320"
       transform="matrix(0.72919638,0.3432087,-0.3432087,0.72919638,82.118389,102.4858)"
       opacity="0.85304446"
       fill="#423751"
       stroke="#423751"
       id="use5239"
       style="filter:url(#filter5243)" /><use
       x="0"
       y="0"
       inkscape:tiled-clone-of="#path320"
       xlink:href="#path320"
       transform="matrix(-1.1464774,-0.35265826,0.35265826,-1.1464774,86.361466,135.88753)"
       opacity="0.97081339"
       fill="#423751"
       stroke="#423751"
       id="use5245" /></g></svg>
