<?xml version="1.0" encoding="UTF-8" standalone="no"?>
<!-- Created with Inkscape (http://www.inkscape.org/) -->

<svg
   width="334"
   height="492"
   viewBox="0 0 88.370833 130.175"
   version="1.1"
   id="svg5"
   xml:space="preserve"
   inkscape:version="1.2.2 (b0a8486541, 2022-12-01)"
   sodipodi:docname="cosmos.svg"
   inkscape:export-filename="z64.png"
   inkscape:export-xdpi="90"
   inkscape:export-ydpi="90"
   xmlns:inkscape="http://www.inkscape.org/namespaces/inkscape"
   xmlns:sodipodi="http://sodipodi.sourceforge.net/DTD/sodipodi-0.dtd"
   xmlns="http://www.w3.org/2000/svg"
   xmlns:svg="http://www.w3.org/2000/svg"><sodipodi:namedview
     id="namedview7"
     pagecolor="#ffffff"
     bordercolor="#666666"
     borderopacity="1.0"
     inkscape:showpageshadow="2"
     inkscape:pageopacity="0.0"
     inkscape:pagecheckerboard="0"
     inkscape:deskcolor="#d1d1d1"
     inkscape:document-units="mm"
     showgrid="false"
     inkscape:zoom="1.3015458"
     inkscape:cx="87.204001"
     inkscape:cy="239.3308"
     inkscape:window-width="1920"
     inkscape:window-height="1051"
     inkscape:window-x="0"
     inkscape:window-y="0"
     inkscape:window-maximized="1"
     inkscape:current-layer="layer1" /><defs
     id="defs2"><filter
       style="color-interpolation-filters:sRGB"
       id="filter4891"
       x="-0.21129203"
       y="-0.21181717"
       width="1.4225874"
       height="1.4264883"><feGaussianBlur
         stdDeviation="0.55189015"
         id="feGaussianBlur4889" /></filter><filter
       style="color-interpolation-filters:sRGB"
       id="filter4897"
       x="-0.1273214"
       y="-0.12651305"
       width="1.2546462"
       height="1.2558801"><feGaussianBlur
         stdDeviation="0.32949104"
         id="feGaussianBlur4895" /></filter><filter
       style="color-interpolation-filters:sRGB"
       id="filter4905"
       x="-0.1028339"
       y="-0.10163669"
       width="1.2056712"
       height="1.2061274"><feGaussianBlur
         stdDeviation="0.26463509"
         id="feGaussianBlur4903" /></filter><filter
       style="color-interpolation-filters:sRGB"
       id="filter4911"
       x="-0.1892983"
       y="-0.18947417"
       width="1.3786"
       height="1.3818023"><feGaussianBlur
         stdDeviation="0.493639"
         id="feGaussianBlur4909" /></filter><filter
       style="color-interpolation-filters:sRGB"
       id="filter4917"
       x="-0.071056792"
       y="-0.069354944"
       width="1.1421169"
       height="1.1415639"><feGaussianBlur
         stdDeviation="0.18047231"
         id="feGaussianBlur4915" /></filter><filter
       style="color-interpolation-filters:sRGB"
       id="filter4923"
       x="-0.042467107"
       y="-0.040311244"
       width="1.0849376"
       height="1.0834765"><feGaussianBlur
         stdDeviation="0.10475156"
         id="feGaussianBlur4921" /></filter><filter
       style="color-interpolation-filters:sRGB"
       id="filter4933"
       x="-0.059552259"
       y="-0.057667715"
       width="1.1191079"
       height="1.1181894"><feGaussianBlur
         stdDeviation="0.15000216"
         id="feGaussianBlur4931" /></filter><filter
       style="color-interpolation-filters:sRGB"
       id="filter4939"
       x="-0.031789054"
       y="-0.02946362"
       width="1.0635815"
       height="1.0617812"><feGaussianBlur
         stdDeviation="0.076470369"
         id="feGaussianBlur4937" /></filter><filter
       style="color-interpolation-filters:sRGB"
       id="filter4945"
       x="-0.1011018"
       y="-0.099877081"
       width="1.202207"
       height="1.2026081"><feGaussianBlur
         stdDeviation="0.26004756"
         id="feGaussianBlur4943" /></filter><filter
       style="color-interpolation-filters:sRGB"
       id="filter4951"
       x="-0.19773016"
       y="-0.19803993"
       width="1.3954637"
       height="1.3989338"><feGaussianBlur
         stdDeviation="0.51597108"
         id="feGaussianBlur4949" /></filter><filter
       style="color-interpolation-filters:sRGB"
       id="filter4959"
       x="-0.045594041"
       y="-0.043487834"
       width="1.0911914"
       height="1.0898296"><feGaussianBlur
         stdDeviation="0.11303335"
         id="feGaussianBlur4957" /></filter><filter
       style="color-interpolation-filters:sRGB"
       id="filter4969"
       x="-0.12460927"
       y="-0.12375786"
       width="1.2492219"
       height="1.2503697"><feGaussianBlur
         stdDeviation="0.32230788"
         id="feGaussianBlur4967" /></filter><filter
       style="color-interpolation-filters:sRGB"
       id="filter4979"
       x="-0.012929665"
       y="-0.010304736"
       width="1.0258627"
       height="1.0234635"><feGaussianBlur
         stdDeviation="0.026520631"
         id="feGaussianBlur4977" /></filter><filter
       style="color-interpolation-filters:sRGB"
       id="filter4985"
       x="-0.11326947"
       y="-0.11223797"
       width="1.2265423"
       height="1.2273299"><feGaussianBlur
         stdDeviation="0.29227404"
         id="feGaussianBlur4983" /></filter><filter
       style="color-interpolation-filters:sRGB"
       id="filter4995"
       x="-0.20214287"
       y="-0.20252272"
       width="1.4042891"
       height="1.4078994"><feGaussianBlur
         stdDeviation="0.52765826"
         id="feGaussianBlur4993" /></filter><filter
       style="color-interpolation-filters:sRGB"
       id="filter5003"
       x="-0.10200508"
       y="-0.1007947"
       width="1.2040135"
       height="1.2044434"><feGaussianBlur
         stdDeviation="0.2624399"
         id="feGaussianBlur5001" /></filter><filter
       style="color-interpolation-filters:sRGB"
       id="filter5011"
       x="-0.11359195"
       y="-0.11256557"
       width="1.2271873"
       height="1.2279851"><feGaussianBlur
         stdDeviation="0.29312813"
         id="feGaussianBlur5009" /></filter><filter
       style="color-interpolation-filters:sRGB"
       id="filter5023"
       x="-0.21155652"
       y="-0.21208587"
       width="1.4231164"
       height="1.4270257"><feGaussianBlur
         stdDeviation="0.55259064"
         id="feGaussianBlur5021" /></filter><filter
       style="color-interpolation-filters:sRGB"
       id="filter5031"
       x="-0.010582178"
       y="-0.0079199695"
       width="1.0211677"
       height="1.0186939"><feGaussianBlur
         stdDeviation="0.020303228"
         id="feGaussianBlur5029" /></filter><filter
       style="color-interpolation-filters:sRGB"
       id="filter5037"
       x="-0.21131851"
       y="-0.21184408"
       width="1.4226404"
       height="1.4265421"><feGaussianBlur
         stdDeviation="0.5519603"
         id="feGaussianBlur5035" /></filter><filter
       style="color-interpolation-filters:sRGB"
       id="filter5043"
       x="-0.22319898"
       y="-0.22391321"
       width="1.4464013"
       height="1.4506804"><feGaussianBlur
         stdDeviation="0.58342611"
         id="feGaussianBlur5041" /></filter><filter
       style="color-interpolation-filters:sRGB"
       id="filter5051"
       x="-0.20761018"
       y="-0.20807685"
       width="1.4152237"
       height="1.4190077"><feGaussianBlur
         stdDeviation="0.54213863"
         id="feGaussianBlur5049" /></filter><filter
       style="color-interpolation-filters:sRGB"
       id="filter5059"
       x="-0.20516992"
       y="-0.20559784"
       width="1.4103432"
       height="1.4140497"><feGaussianBlur
         stdDeviation="0.5356755"
         id="feGaussianBlur5057" /></filter><filter
       style="color-interpolation-filters:sRGB"
       id="filter5067"
       x="-0.10532247"
       y="-0.10416477"
       width="1.2106483"
       height="1.2111835"><feGaussianBlur
         stdDeviation="0.27122613"
         id="feGaussianBlur5065" /></filter><filter
       style="color-interpolation-filters:sRGB"
       id="filter5075"
       x="-0.065426752"
       y="-0.063635497"
       width="1.1308569"
       height="1.130125"><feGaussianBlur
         stdDeviation="0.16556096"
         id="feGaussianBlur5073" /></filter><filter
       style="color-interpolation-filters:sRGB"
       id="filter5085"
       x="-0.1680784"
       y="-0.16791729"
       width="1.3361602"
       height="1.3386886"><feGaussianBlur
         stdDeviation="0.43743737"
         id="feGaussianBlur5083" /></filter><filter
       style="color-interpolation-filters:sRGB"
       id="filter5091"
       x="-0.059489786"
       y="-0.05760425"
       width="1.1189829"
       height="1.1180625"><feGaussianBlur
         stdDeviation="0.14983671"
         id="feGaussianBlur5089" /></filter><filter
       style="color-interpolation-filters:sRGB"
       id="filter5113"
       x="-0.13466331"
       y="-0.13397156"
       width="1.26933"
       height="1.2707971"><feGaussianBlur
         stdDeviation="0.34893636"
         id="feGaussianBlur5111" /></filter><filter
       style="color-interpolation-filters:sRGB"
       id="filter5123"
       x="-0.21029484"
       y="-0.21080415"
       width="1.420593"
       height="1.4244623"><feGaussianBlur
         stdDeviation="0.54924906"
         id="feGaussianBlur5121" /></filter><filter
       style="color-interpolation-filters:sRGB"
       id="filter5129"
       x="-0.01656961"
       y="-0.014002484"
       width="1.0331426"
       height="1.0308589"><feGaussianBlur
         stdDeviation="0.036161148"
         id="feGaussianBlur5127" /></filter><filter
       style="color-interpolation-filters:sRGB"
       id="filter5137"
       x="-0.076653237"
       y="-0.075040263"
       width="1.1533098"
       height="1.1529345"><feGaussianBlur
         stdDeviation="0.1952947"
         id="feGaussianBlur5135" /></filter><filter
       style="color-interpolation-filters:sRGB"
       id="filter5155"
       x="-0.23265233"
       y="-0.23351669"
       width="1.465308"
       height="1.4698874"><feGaussianBlur
         stdDeviation="0.60846367"
         id="feGaussianBlur5153" /></filter><filter
       style="color-interpolation-filters:sRGB"
       id="filter5163"
       x="-0.22193642"
       y="-0.2226306"
       width="1.4438762"
       height="1.4481152"><feGaussianBlur
         stdDeviation="0.5800822"
         id="feGaussianBlur5161" /></filter><filter
       style="color-interpolation-filters:sRGB"
       id="filter5171"
       x="-0.22015069"
       y="-0.22081651"
       width="1.4403047"
       height="1.444487"><feGaussianBlur
         stdDeviation="0.57535262"
         id="feGaussianBlur5169" /></filter><filter
       style="color-interpolation-filters:sRGB"
       id="filter5187"
       x="-0.045516787"
       y="-0.043409354"
       width="1.0910369"
       height="1.0896727"><feGaussianBlur
         stdDeviation="0.11282874"
         id="feGaussianBlur5185" /></filter><filter
       style="color-interpolation-filters:sRGB"
       id="filter5209"
       x="-0.045859048"
       y="-0.043757051"
       width="1.0917215"
       height="1.0903681"><feGaussianBlur
         stdDeviation="0.11373523"
         id="feGaussianBlur5207" /></filter><filter
       style="color-interpolation-filters:sRGB"
       id="filter5215"
       x="-0.16082933"
       y="-0.1605531"
       width="1.321662"
       height="1.3239602"><feGaussianBlur
         stdDeviation="0.41823794"
         id="feGaussianBlur5213" /></filter><filter
       style="color-interpolation-filters:sRGB"
       id="filter5223"
       x="-0.079128666"
       y="-0.077555003"
       width="1.1582607"
       height="1.157964"><feGaussianBlur
         stdDeviation="0.20185095"
         id="feGaussianBlur5221" /></filter><filter
       style="color-interpolation-filters:sRGB"
       id="filter5229"
       x="-0.19157306"
       y="-0.19178505"
       width="1.3831495"
       height="1.3864241"><feGaussianBlur
         stdDeviation="0.49966376"
         id="feGaussianBlur5227" /></filter><filter
       style="color-interpolation-filters:sRGB"
       id="filter5237"
       x="-0.17609347"
       y="-0.17605964"
       width="1.3521903"
       height="1.3549733"><feGaussianBlur
         stdDeviation="0.45866554"
         id="feGaussianBlur5235" /></filter><filter
       style="color-interpolation-filters:sRGB"
       id="filter5243"
       x="-0.10760972"
       y="-0.10648835"
       width="1.2152228"
       height="1.2158307"><feGaussianBlur
         stdDeviation="0.27728401"
         id="feGaussianBlur5241" /></filter></defs><g
     inkscape:label="Layer 1"
     inkscape:groupmode="layer"
     id="layer1"><rect
       style="fill:#39ff14;stroke-width:9.88892;stroke-linecap:round;stroke-linejoin:round;fill-opacity:1"
       id="rect421"
       width="88.370834"
       height="130.175"
       x="-3.5527137e-15"
       y="0"
       ry="0" /><path
       style="fill:#ffffff;stroke:none;stroke-width:0.0183072"
       d="m 40.859236,114.30956 c -0.738333,0.11627 -0.670634,0.91123 -0.339822,1.38331 0.08846,0.12622 0.286985,0.46354 0.46797,0.43393 0.158596,-0.026 0.294654,-0.25913 0.381669,-0.379 0.129321,-0.17815 0.268441,-0.39829 0.292512,-0.62245 0.0499,-0.46446 -0.314698,-0.89257 -0.802329,-0.81579 m 0.109841,1.49316 c -0.113396,-0.0915 -0.201564,-0.22452 -0.278012,-0.34784 -0.06025,-0.0972 -0.115264,-0.19992 -0.144445,-0.31122 -0.136518,-0.52076 0.632183,-0.81219 0.822782,-0.29292 0.02844,0.0775 0.02723,0.17507 0.01737,0.2563 -0.01432,0.11797 -0.076,0.22913 -0.135841,0.32953 -0.07929,0.13302 -0.173589,0.25558 -0.281858,0.36615 m -2.050408,0.53091 h -0.03662 c -0.06808,-0.1314 -0.181698,-0.23877 -0.259759,-0.36615 -0.05812,-0.0948 -0.08835,-0.22304 -0.15585,-0.30851 -0.04291,-0.0543 -0.123335,-0.0732 -0.184354,-0.0361 -0.113443,0.0691 -0.02736,0.23835 0.0116,0.32625 0.09271,0.20909 0.237023,0.39895 0.39009,0.56751 0.05983,0.0659 0.136098,0.1533 0.234883,0.14149 0.149114,-0.0178 0.276879,-0.23316 0.359279,-0.34286 0.285775,-0.38045 0.510203,-0.94155 0.08002,-1.31428 -0.177999,-0.15423 -0.766377,-0.30125 -0.883102,0.0152 -0.03015,0.0817 0.02921,0.16628 0.114348,0.17259 0.08773,0.007 0.170202,-0.0623 0.256227,-0.0758 0.185927,-0.0291 0.376379,0.10446 0.451216,0.26858 0.163339,0.35815 -0.234021,0.66993 -0.377987,0.95198 m 1.997481,-1.4324 c -0.139043,0.0549 -0.066,0.30484 0.08873,0.24686 0.158449,-0.0594 0.06776,-0.30866 -0.08873,-0.24686 m -2.052054,0.53143 c -0.163286,0.0545 -0.07768,0.31573 0.08919,0.24656 0.138973,-0.0576 0.05807,-0.29575 -0.08919,-0.24656 m -0.860788,1.88957 c -0.177004,1.1e-4 -0.332371,0.037 -0.447991,0.18334 -0.05336,0.0675 -0.07639,0.21017 -0.158589,0.24499 -0.167326,0.0708 -0.475046,0.011 -0.656616,0.011 -0.08881,4e-5 -0.212879,-0.0112 -0.266249,0.0773 -0.05658,0.0939 -0.02665,0.25656 -0.02665,0.36202 v 0.86044 3.22207 0.95198 c 0,0.10554 -0.03524,0.29143 0.03189,0.38028 0.08689,0.11497 0.388647,0.0591 0.517319,0.0591 h 1.482885 c 0.134448,0 0.519726,0.0689 0.558773,-0.11012 0.05078,-0.23275 -0.396552,-0.16449 -0.522157,-0.16449 h -1.794108 v -5.36402 h 0.402759 c -0.13078,0.24861 -0.267646,0.72539 0.146458,0.79949 0.167167,0.0299 0.302971,-0.0413 0.457681,-0.0855 0.112169,0.26474 0.419302,0.3295 0.677367,0.32953 0,0.0687 -0.01284,0.15406 0.01358,0.21888 0.04209,0.10325 0.183825,0.11592 0.239442,0.0171 0.03722,-0.0661 0.02159,-0.1629 0.02159,-0.236 h 0.421065 c 0,0.0743 -0.01968,0.18439 0.02159,0.25 0.05095,0.081 0.182396,0.0719 0.221131,-0.0154 0.02964,-0.0669 0.01358,-0.16284 0.01358,-0.23453 0.384744,0 0.720408,-0.16061 0.805519,-0.56753 l 0.311224,0.0366 c 0,0.0687 -0.01284,0.15406 0.01358,0.21889 0.03809,0.0935 0.162641,0.11782 0.224243,0.0333 0.05082,-0.0698 0.03678,-0.17086 0.03678,-0.25213 h 0.40276 c 1.6e-5,0.1106 0.112075,0.49122 0.255789,0.236 0.03627,-0.0644 0.01881,-0.1646 0.01881,-0.236 0.180052,0 0.357008,-0.0142 0.5126,-0.11436 0.07512,-0.0484 0.140291,-0.16195 0.222801,-0.18941 0.150649,-0.0501 0.329054,0.0993 0.509488,0.0266 0.111566,-0.0451 0.133386,-0.1603 0.224703,-0.21654 0.06428,-0.0396 0.196785,-0.0241 0.269575,-0.0178 0.170149,0.0149 0.354627,0.40317 0.465478,0.52976 0.05511,0.0629 0.135897,0.15304 0.230215,0.13666 0.298261,-0.0518 0.355527,-0.51186 0.574461,-0.64868 0.07772,-0.0486 0.233912,-0.0188 0.322593,-0.0188 h 0.787212 v 5.36402 h -2.196869 c -0.140179,0 -0.671181,-0.0813 -0.655268,0.14641 0.01459,0.20913 0.529773,0.1282 0.673574,0.1282 h 1.775804 c 0.148965,0 0.521533,0.0667 0.632806,-0.0445 0.07861,-0.0786 0.04456,-0.25678 0.04456,-0.3582 v -0.93367 -3.33191 -0.84214 c 0,-0.0991 0.02907,-0.25706 -0.03678,-0.34017 -0.07308,-0.0922 -0.244877,-0.0626 -0.347672,-0.0626 h -0.915363 c 0.205407,-0.67598 -0.703708,-1.17558 -1.184475,-0.67418 -0.189683,0.1978 -0.199512,0.41933 -0.188566,0.67418 -0.07579,0 -0.201286,0.0238 -0.267395,-0.0188 -0.07332,-0.0472 -0.109184,-0.18562 -0.162879,-0.25578 -0.08284,-0.10821 -0.207677,-0.17572 -0.288706,-0.28056 -0.04835,-0.0626 -0.06243,-0.14762 -0.108889,-0.21347 -0.110907,-0.15722 -0.289474,-0.20554 -0.471943,-0.21997 -0.03061,-0.34831 -0.419674,-0.58691 -0.750596,-0.54392 -0.131575,0.0171 -0.243083,0.11975 -0.366147,0.13245 -0.207271,0.0214 -0.339376,-0.0943 -0.549196,0.0356 -0.152151,0.0942 -0.145891,0.22435 -0.237794,0.35183 -0.03869,0.0536 -0.227906,0.12297 -0.293133,0.13346 -0.07673,0.0124 -0.160042,-0.0328 -0.237996,-0.0354 -0.09485,-0.003 -0.184572,0.0535 -0.274608,0.048 -0.129414,-0.008 -0.261938,-0.11843 -0.402758,-0.13505 -0.339893,-0.0402 -0.682224,0.22823 -0.73229,0.56227 m 2.196869,0.91536 c 0.07767,-0.11794 0.161889,-0.22018 0.177506,-0.36614 0.02884,-0.26968 -0.209894,-0.52633 -0.470424,-0.54922 -0.0052,-0.0595 -0.05736,-0.15964 -0.03226,-0.21414 0.05346,-0.11611 0.251433,-0.003 0.327499,-0.11782 0.07828,-0.11915 -0.0168,-0.24779 0.126612,-0.35431 0.172144,-0.12784 0.263642,0.0619 0.42028,0.0569 0.0889,-0.003 0.149332,-0.0969 0.219686,-0.13948 0.13692,-0.0829 0.328213,-0.0689 0.456968,0.0223 0.173971,0.12333 0.103526,0.3733 0.242881,0.47651 0.134868,0.0999 0.332495,-0.088 0.445139,0.1243 0.113269,0.21347 -0.114344,0.27423 -0.161943,0.4386 -0.03481,0.12012 0.05142,0.25278 0.003,0.38443 -0.135217,0.36839 -0.623965,0.27461 -0.931235,0.27461 -0.26818,0 -0.564046,0.0364 -0.823825,-0.0366 m -1.574424,-1.20231 c 0.219193,-0.0356 0.29601,0.16252 0.475988,0.19015 0.131632,0.0202 0.213171,-0.13779 0.366126,-0.0899 0.216816,0.0679 0.101552,0.24933 0.196675,0.38604 0.116782,0.16785 0.488932,0.0114 0.440106,0.34984 -0.0056,0.0392 -0.02063,0.0763 -0.04458,0.10794 -0.04813,0.0636 -0.135016,0.0925 -0.169892,0.16695 -0.03409,0.0728 0.01687,0.16129 0.01469,0.23771 -0.0055,0.19393 -0.154808,0.37647 -0.345459,0.4125 -0.355067,0.0671 -0.77359,0.009 -1.135046,0.009 -0.179243,0 -0.330711,-0.0137 -0.450535,-0.16483 -0.143174,-0.18057 -0.01486,-0.31304 -0.06349,-0.49395 -0.04502,-0.16742 -0.276168,-0.22565 -0.144862,-0.43938 0.124392,-0.20245 0.324045,-0.008 0.448101,-0.13637 0.05714,-0.0592 0.04269,-0.15601 0.06301,-0.23004 0.04536,-0.16526 0.18135,-0.27804 0.349152,-0.30526 m 5.126023,0.12821 c 0.263277,-0.0463 0.526698,0.13521 0.527614,0.41504 6.9e-4,0.17873 -0.09833,0.34966 -0.1925,0.49429 -0.04804,0.0738 -0.136518,0.24393 -0.226899,0.26828 -0.10459,0.0282 -0.233106,-0.2151 -0.278562,-0.28659 -0.180253,-0.2835 -0.30163,-0.80811 0.170347,-0.89102 m 0.03861,0.31885 c -0.148748,0.0617 -0.04487,0.31009 0.10585,0.23609 0.14408,-0.0707 0.04895,-0.30025 -0.10585,-0.23609 m -1.429959,0.0413 c 0.06136,0.0299 0.100781,0.0724 0.140945,0.12817 0.03253,0.0452 0.05972,0.0946 0.08008,0.14644 0.08369,0.21317 -0.128936,0.31985 -0.288428,0.17119 -0.05425,-0.0506 -0.06104,-0.19355 -0.04454,-0.26273 0.01589,-0.0667 0.07792,-0.12413 0.11195,-0.18307 m -4.851415,0.53091 c 0.03152,0.0612 0.08745,0.1155 0.104036,0.18307 0.01626,0.0662 0.02157,0.19373 -0.02354,0.24909 -0.137242,0.16852 -0.416937,0.0736 -0.319302,-0.15756 0.02267,-0.0536 0.0569,-0.1009 0.09264,-0.14644 0.04345,-0.0553 0.08281,-0.098 0.146176,-0.12816 m 5.14433,2.72778 c 0.08483,0.16352 0.259927,0.28176 0.439372,0.32004 0.06851,0.0146 0.152664,-0.008 0.216979,0.0205 0.0989,0.0432 0.03008,0.18581 0.08698,0.25939 0.175602,0.227 0.245259,-0.16582 0.245259,-0.27043 h 0.402759 c 0,0.10239 0.06919,0.49959 0.242717,0.27043 0.05298,-0.07 2.08e-4,-0.18005 0.06124,-0.24108 0.07359,-0.0736 0.210186,0.007 0.2866,-0.0779 0.0415,-0.0461 0.03971,-0.13478 0,-0.18148 -0.0776,-0.0913 -0.334806,-0.0262 -0.444097,-0.0262 -0.336505,0 -0.963692,0.12066 -1.225799,-0.13007 -0.08641,-0.0827 -0.149166,-0.20512 -0.140105,-0.32761 0.0053,-0.0711 0.0545,-0.1482 0.03246,-0.21941 -0.03819,-0.12358 -0.202604,-0.16018 -0.19241,-0.3115 0.02344,-0.34824 0.358531,-0.10851 0.488678,-0.24594 0.05411,-0.0572 0.0437,-0.14103 0.06255,-0.21175 0.03327,-0.12475 0.125002,-0.23884 0.242315,-0.29437 0.275158,-0.13026 0.358601,0.1367 0.585829,0.16105 0.170937,0.0183 0.261466,-0.20069 0.43857,-0.0456 0.120717,0.10572 0.03382,0.27965 0.1369,0.36924 0.132051,0.11475 0.37627,-0.0146 0.423483,0.24904 0.03192,0.1783 -0.185618,0.20672 -0.221845,0.34811 -0.03152,0.12304 0.05589,0.4813 0.243924,0.33652 0.08546,-0.0658 0.02737,-0.16473 0.07171,-0.24527 0.145011,-0.26336 0.313216,-0.53824 0.0223,-0.79949 -0.08114,-0.0729 -0.206816,-0.0773 -0.280906,-0.1475 -0.107427,-0.10172 -0.109275,-0.25915 -0.248301,-0.35648 -0.208958,-0.14625 -0.352414,-0.0178 -0.559763,-0.0417 -0.07043,-0.008 -0.141494,-0.0751 -0.209139,-0.0995 -0.150139,-0.054 -0.325322,-0.0521 -0.475988,2.1e-4 -0.146182,0.0508 -0.277501,0.15872 -0.357377,0.29106 -0.03456,0.0573 -0.04611,0.14387 -0.09485,0.19035 -0.07709,0.0735 -0.240722,0.0607 -0.334967,0.13107 -0.12416,0.0927 -0.136829,0.22335 -0.229041,0.33169 -0.132071,0.15519 -0.301211,0.24649 -0.384913,0.44533 -0.209266,0.49706 0.229995,0.79872 0.668857,0.54921 m -1.794106,-1.67641 c -0.09531,0.0132 -0.188587,0.0362 -0.274612,0.0804 -0.520236,0.26751 -0.391133,0.86532 -0.13571,1.26648 0.08817,0.13845 0.292311,0.49024 0.48355,0.47247 0.155535,-0.0144 0.311332,-0.26469 0.394922,-0.38094 0.147151,-0.20464 0.291597,-0.45508 0.299964,-0.71398 0.01298,-0.40226 -0.356368,-0.78157 -0.768114,-0.72444 m 0.03661,1.49334 c -0.102739,-0.14757 -0.223348,-0.27757 -0.306483,-0.43937 -0.05058,-0.0985 -0.09325,-0.1992 -0.096,-0.31122 -0.01684,-0.68694 1.016727,-0.54739 0.838946,0.10984 -0.03199,0.11822 -0.09481,0.22803 -0.161927,0.32953 -0.07279,0.11008 -0.153322,0.25216 -0.274534,0.31122 m 2.74e-4,-0.90297 c -0.167272,0.0325 -0.109787,0.29349 0.0543,0.25392 0.14858,-0.0358 0.101988,-0.28425 -0.0543,-0.25392 m -3.332101,0.32763 c -0.110435,0.0323 -0.157661,0.19764 -0.03471,0.25053 0.147088,0.0633 0.406364,0.0136 0.565531,0.0136 0.06226,0 0.140773,0.0117 0.199384,-0.0136 0.122953,-0.0529 0.07574,-0.21826 -0.03471,-0.25053 -0.165867,-0.0485 -0.529643,-0.0485 -0.695507,0 m 4.887945,0.081 c 0.03409,0.0594 0.088,0.11556 0.104093,0.18308 0.01525,0.064 0.0228,0.19233 -0.02361,0.24462 -0.156364,0.17617 -0.399976,0.0584 -0.302382,-0.17139 0.01905,-0.0449 0.04305,-0.0885 0.07156,-0.12813 0.04154,-0.0577 0.08663,-0.0984 0.150324,-0.12818 m -4.448374,0.48648 c -0.122092,0.0362 -0.14572,0.20395 -0.01824,0.25309 0.221005,0.0852 0.604608,0.011 0.841779,0.011 0.08658,0 0.212748,0.0225 0.29092,-0.0216 0.133553,-0.0752 0.05456,-0.23207 -0.07125,-0.24957 -0.217892,-0.0303 -0.457352,-0.004 -0.67735,-0.004 -0.114103,0 -0.255631,-0.0222 -0.365862,0.0105 m 1.738906,2.42436 c 0.13009,0.27897 0.440928,0.32953 0.71398,0.32953 0,0.0738 -0.01479,0.16757 0.01358,0.2372 0.0381,0.0935 0.162641,0.11782 0.224247,0.0332 0.05371,-0.0738 0.03678,-0.18455 0.03678,-0.27044 h 0.402759 c 0,0.0808 -0.01268,0.17921 0.02881,0.25239 0.04957,0.0875 0.176571,0.0915 0.22699,0.003 0.03851,-0.0684 0.01881,-0.17834 0.01881,-0.25431 0.332733,0 0.643592,-0.13568 0.755191,-0.47599 0.03525,-0.10748 -0.0014,-0.24156 0.04029,-0.34007 0.102779,-0.24325 0.274336,-0.35344 0.147923,-0.64852 -0.08998,-0.21007 -0.269062,-0.18494 -0.401733,-0.32153 -0.09271,-0.0954 -0.09329,-0.23521 -0.212218,-0.32784 -0.214579,-0.16712 -0.360634,-0.0488 -0.585759,-0.0724 -0.15929,-0.0166 -0.281033,-0.14415 -0.457677,-0.13481 -0.228274,0.012 -0.438112,0.12039 -0.57139,0.30739 -0.04653,0.0653 -0.05917,0.17382 -0.116286,0.22696 -0.07363,0.0685 -0.228566,0.0496 -0.319222,0.11425 -0.129597,0.0924 -0.145451,0.21475 -0.232996,0.33067 -0.123171,0.16308 -0.291469,0.25022 -0.384654,0.44487 -0.10684,0.22318 -0.0943,0.58 0.196584,0.64931 0.166119,0.0396 0.323853,-0.0231 0.475988,-0.0818 M 40.621064,121.32 c 0.103489,-0.0182 0.220802,-0.007 0.311223,0.0488 0.06334,0.0391 0.121468,0.12535 0.201381,0.12838 0.16813,0.006 0.25714,-0.20213 0.437449,-0.0479 0.12632,0.10808 0.02887,0.27133 0.13518,0.36929 0.126887,0.11695 0.361331,-0.0132 0.41085,0.22763 0.04229,0.20568 -0.14373,0.2187 -0.209598,0.36693 -0.02998,0.0675 0.01318,0.16471 0.01318,0.23721 0,0.19285 -0.131883,0.38035 -0.329383,0.41504 -0.339856,0.0597 -0.734888,0.006 -1.080126,0.006 -0.152115,0 -0.311771,0.0198 -0.439298,-0.0804 -0.242573,-0.19058 -0.07513,-0.35447 -0.14353,-0.57855 -0.05273,-0.17276 -0.293501,-0.24471 -0.123483,-0.45695 0.125056,-0.1561 0.310966,-6.2e-4 0.423759,-0.11647 0.06208,-0.0637 0.04855,-0.17099 0.07447,-0.25048 0.04505,-0.13811 0.175897,-0.24363 0.317924,-0.26858 m -1.098433,1.00087 c 0.03403,0.0589 0.09604,0.11638 0.111948,0.18308 0.01429,0.0599 0.01342,0.21068 -0.03146,0.25692 -0.156051,0.16088 -0.391223,0.0592 -0.301466,-0.16539 0.01808,-0.0452 0.04229,-0.0886 0.07065,-0.12815 0.04207,-0.0587 0.09179,-0.10512 0.15032,-0.14646 m 3.918093,0.0685 c -0.111308,0.0444 -0.123591,0.21689 3.35e-4,0.25308 0.241818,0.0706 0.589179,0.008 0.841326,0.008 0.08797,0 0.229022,0.0261 0.307049,-0.0216 0.115519,-0.0706 0.04251,-0.22836 -0.06907,-0.24885 -0.234937,-0.0431 -0.511615,-0.004 -0.750579,-0.004 -0.09922,0 -0.235648,-0.0238 -0.329182,0.0135 z"
       id="path8729" /><path
       style="fill:#ffffff;stroke:none;stroke-width:0.00887548"
       d="m 1.6328594,62.39502 c -0.3328606,0.0511 -0.6096485,0.260198 -0.68765157,0.600659 -0.0231374,0.100991 0.0187039,0.223954 -0.009489,0.316902 -0.0161354,0.05322 -0.089897,0.103708 -0.12179538,0.150473 -0.0752317,0.110295 -0.1244466,0.237207 -0.13357995,0.371234 -0.0161149,0.236484 0.0760623,0.473886 0.25394829,0.63213 0.0592814,0.05273 0.17686811,0.08921 0.22072941,0.149446 0.031663,0.04345 0.020309,0.142454 0.033084,0.196017 0.026259,0.11018 0.080038,0.21459 0.1507147,0.302399 0.077132,0.09587 0.1789906,0.172387 0.2916362,0.221279 0.05258,0.02282 0.1499196,0.02793 0.1908988,0.06513 0.032114,0.02914 0.047149,0.106598 0.06366,0.14677 0.024381,0.05925 0.066345,0.11475 0.1080298,0.163115 0.2372132,0.275169 0.6320788,0.33529 0.9498992,0.170068 0.2264225,0.324022 0.7534404,0.280934 1.0282985,0.06068 0.060805,-0.04873 0.1138773,-0.107214 0.1569031,-0.172197 0.020746,-0.03133 0.038152,-0.08764 0.071344,-0.107337 0.032913,-0.01956 0.091474,-0.0056 0.1286499,-0.0078 0.077802,-0.0046 0.155032,-0.02109 0.2277047,-0.0492 0.3285058,-0.127062 0.6304332,-0.561148 0.4639657,-0.919683 0.3022868,-0.191722 0.4487129,-0.563774 0.3299929,-0.906824 -0.027127,-0.07838 -0.066386,-0.143849 -0.113934,-0.210921 -0.019811,-0.02789 -0.061679,-0.05848 -0.068183,-0.09296 -0.010506,-0.05551 0.033138,-0.139992 0.039942,-0.198009 0.014284,-0.121939 -6.832e-4,-0.248493 -0.044888,-0.36332 -0.040038,-0.104 -0.1044556,-0.205286 -0.1858026,-0.2822 -0.04014,-0.03796 -0.1309534,-0.0773 -0.1528851,-0.127054 C 4.793995,62.435637 4.821522,62.315632 4.805676,62.23789 4.759292,62.010034 4.6038651,61.808709 4.3954011,61.705989 c -0.1247137,-0.06145 -0.2585921,-0.08614 -0.3969219,-0.0761 -0.056453,0.0041 -0.137169,0.04252 -0.1912881,0.02975 -0.09453,-0.0223 -0.1798479,-0.120241 -0.2787983,-0.150953 -0.3335882,-0.103533 -0.6534155,0.0308 -0.8647704,0.292976 -0.08286,-0.05818 -0.2121924,-0.06444 -0.3106065,-0.05924 -0.2576618,0.01361 -0.4894257,0.152893 -0.6262088,0.370973 -0.049137,0.07834 -0.102034,0.187439 -0.093924,0.281604 m 2.3125865,0.583845 c 0.079849,0.190704 0.1709461,0.366649 0.2186383,0.570529 0.04497,0.192275 0.04025,0.382435 0.067008,0.575886 0.024476,0.176957 0.090737,0.33119 0.067171,0.514345 -0.048898,0.380058 -0.4548555,0.669597 -0.8287938,0.643512 -0.2707842,-0.01888 -0.4137632,-0.20242 -0.6071308,-0.3597 C 2.7014403,64.79252 2.5221451,64.696245 2.369644,64.551623 2.2253342,64.414769 2.1255258,64.25115 2.0070572,64.09468 1.7672181,64.23274 1.1802118,64.338318 1.172377,63.909493 c -0.00485,-0.265248 0.2761867,-0.488037 0.4866993,-0.597235 0.199418,-0.103437 0.4319702,-0.05345 0.6254949,-0.176521 0.068817,-0.04377 0.1237539,-0.108895 0.1626892,-0.17993 0.036151,-0.06594 0.050551,-0.139294 0.1279497,-0.169119 0.057505,-0.02217 0.1250266,0.002 0.1848326,8.2e-4 0.098323,-0.002 0.1872297,-0.03028 0.2707668,-0.08113 0.1234622,-0.07514 0.1886745,-0.203593 0.284333,-0.306636 0.1145973,-0.123429 0.2726228,-0.216299 0.4358018,-0.256987 0.07959,-0.01985 0.1585679,-0.02728 0.2403774,-0.02718 0.2195729,2.66e-4 0.4215287,0.173657 0.3479064,0.409397 -0.0595,0.190486 -0.2248028,0.35659 -0.393761,0.453849 M 1.8972998,63.850599 1.8269354,63.53267 c -0.1333525,0.05585 -0.2451709,0.129405 -0.3261688,0.251742 -0.021027,0.03177 -0.068942,0.08968 -0.051945,0.130692 0.017693,0.04265 0.089039,0.03508 0.1257671,0.03314 0.1167847,-0.0061 0.2218572,-0.03959 0.3227101,-0.09764 m 1.652667,-1.309774 0.2395904,0.220516 c 0.102088,-0.05877 0.191131,-0.135697 0.2522733,-0.237786 0.018055,-0.03015 0.055183,-0.08297 0.028739,-0.117632 -0.026929,-0.0353 -0.1010763,-0.02295 -0.1390996,-0.02072 -0.1464719,0.0086 -0.2662309,0.06836 -0.3815031,0.155623 m -1.4589462,0.952477 c 0.049977,0.38886 0.2798366,0.71805 0.578136,0.967804 0.1111565,0.09306 0.2387557,0.159807 0.3537697,0.246959 0.2121507,0.160754 0.3368508,0.363224 0.639404,0.287355 -0.029197,-0.05071 -0.068627,-0.164854 -0.1212961,-0.192448 -0.082875,-0.04344 -0.2119854,0.01978 -0.2508913,-0.105354 -0.060477,-0.194533 0.1620689,-0.135077 0.2481192,-0.184611 0.093166,-0.05363 0.1117733,-0.239757 0.2628016,-0.140209 0.126539,0.0834 -0.00932,0.19304 -0.013451,0.288231 -0.0026,0.0594 0.076312,0.150835 0.1055002,0.201541 0.2171771,-0.223134 0.1050616,-0.433361 0.072636,-0.697233 -0.017584,-0.143113 -0.011251,-0.28718 -0.035884,-0.429946 -0.066427,-0.385031 -0.2341493,-0.746531 -0.546545,-0.98599 -0.1257035,0.117032 -0.2370744,0.220702 -0.4054179,0.274187 -0.078545,0.02495 -0.2058038,0.0038 -0.2726549,0.04227 -0.066673,0.03838 -0.1127871,0.159132 -0.1734825,0.214553 -0.1307082,0.119358 -0.2760474,0.162854 -0.440717,0.212873 m 0.5389207,0.420293 C 2.7615244,63.805225 2.931717,64.011925 2.798838,64.117991 2.6649383,64.22488 2.4953496,64.02447 2.6299672,63.913583 m 0.8076722,-0.464928 c 0.1329618,-0.109515 0.3046846,0.096 0.1688708,0.204409 -0.1324275,0.105712 -0.3006425,-0.09586 -0.1688708,-0.204409 z"
       id="path8727" /><path
       style="fill:#ffffff;stroke:none;stroke-width:0.0114149"
       d="m 82.770294,92.859563 -0.646791,-0.408138 c -0.0898,0.142313 -0.187179,0.281049 -0.240084,0.442394 -0.117679,0.358891 -0.03524,0.766485 0.216869,1.048916 0.135919,0.152242 0.320041,0.248208 0.490765,0.355938 -0.09256,0.209033 -0.131572,0.454621 -0.19259,0.674825 -0.09847,0.355383 -0.257787,0.733823 -0.211113,1.108556 0.09115,0.731838 0.86087,1.214187 1.560061,0.997924 0.364627,-0.112777 0.643394,-0.428584 0.923895,-0.672273 0.172498,-0.149859 0.377379,-0.29078 0.526219,-0.4643 0.170811,0.107785 0.336586,0.232383 0.532517,0.289773 0.363107,0.106354 0.766967,0.0048 1.040125,-0.255729 0.122858,-0.117203 0.206175,-0.26481 0.295977,-0.407123 l -0.64679,-0.408137 c 0.250347,-0.396734 0.306717,-0.859688 -0.0092,-1.247499 -0.05581,-0.06852 -0.123069,-0.131187 -0.197648,-0.178751 -0.04548,-0.02901 -0.126541,-0.06019 -0.157113,-0.105257 -0.05167,-0.07617 -0.04625,-0.223325 -0.07832,-0.313072 -0.07358,-0.205876 -0.199987,-0.390699 -0.364467,-0.534698 -0.258317,-0.226153 -0.601277,-0.34339 -0.944254,-0.321757 -0.11601,0.0073 -0.237265,0.06916 -0.349809,0.06765 -0.05298,-7.1e-4 -0.118724,-0.06301 -0.162246,-0.09038 -0.08195,-0.05152 -0.173472,-0.08853 -0.267808,-0.110346 -0.482658,-0.111601 -0.870544,0.138963 -1.118235,0.531488 m 2.929792,1.025407 c 0.19743,0.03948 0.392945,0.143903 0.499732,0.320335 0.221933,0.366722 0.02038,0.847063 -0.384684,0.966837 -0.24552,0.0726 -0.531228,-0.03295 -0.686544,-0.231772 -0.04549,-0.05822 -0.08718,-0.224554 -0.151724,-0.251528 -0.06971,-0.02913 -0.196264,0.0092 -0.273505,0.0056 -0.156613,-0.0072 -0.328222,-0.06222 -0.457036,-0.152709 -0.127242,-0.08939 -0.241073,-0.195772 -0.315251,-0.33462 -0.03354,-0.06277 -0.06137,-0.220578 -0.12183,-0.256123 -0.06554,-0.03855 -0.204644,-0.0045 -0.283151,-0.02186 -0.23524,-0.05216 -0.434441,-0.242312 -0.495575,-0.475821 -0.10567,-0.403604 0.223094,-0.809044 0.633142,-0.811688 0.223387,-0.0014 0.444669,0.136158 0.569078,0.317392 0.622496,-0.480064 1.632718,0.157424 1.467347,0.925924 m -3.022819,0.06318 c -0.112816,-0.07119 -0.233953,-0.13447 -0.32473,-0.234039 -0.181157,-0.198727 -0.249802,-0.544104 -0.112519,-0.784238 l 0.299261,0.18884 0.127716,0.08873 0.02039,0.220693 0.06286,0.257976 -0.07299,0.262038 m 3.906869,1.722946 c -0.15793,0.227672 -0.498598,0.314091 -0.756305,0.235994 -0.128942,-0.03908 -0.238209,-0.121187 -0.351022,-0.192374 0.140333,-0.167671 0.269478,-0.17082 0.465021,-0.232966 0.05706,-0.01813 0.149019,-0.08398 0.207985,-0.07658 0.04571,0.0058 0.09689,0.053 0.135059,0.07709 l 0.299262,0.18884 m -1.332456,-0.21992 c -0.311297,0.308278 -0.666948,0.581051 -0.997441,0.868821 -0.203075,0.176818 -0.401166,0.390336 -0.673344,0.451919 -0.506312,0.114533 -1.014828,-0.259585 -1.058985,-0.775694 -0.02233,-0.261014 0.09312,-0.539528 0.16396,-0.787375 0.110789,-0.387696 0.193411,-0.790264 0.326175,-1.170923 0.107366,0.08022 0.208849,0.14962 0.338152,0.191378 0.06578,0.02125 0.191765,0.02025 0.242065,0.06558 0.06552,0.05905 0.102859,0.171428 0.157078,0.243043 0.112813,0.149001 0.26805,0.274857 0.434923,0.358872 0.115098,0.05796 0.244249,0.09831 0.371518,0.117114 0.06485,0.0096 0.167806,-0.0041 0.224507,0.02923 0.06313,0.03715 0.109404,0.13971 0.161199,0.193733 0.09096,0.09488 0.195503,0.153978 0.310193,0.214297 m -2.022613,0.167926 -0.300656,0.134221 c 0.0386,0.09527 0.141736,0.270371 0.120719,0.373323 -0.01559,0.07634 -0.09286,0.160052 -0.134195,0.225562 l 0.289608,0.182748 c 0.04341,-0.0688 0.09806,-0.20907 0.179698,-0.235194 0.0823,-0.02635 0.295698,0.01802 0.351738,-0.05156 0.04732,-0.05876 -0.0054,-0.239009 -0.005,-0.312337 l -0.34799,-0.0047 z"
       id="path8733" /><path
       style="fill:#ffffff;stroke:none;stroke-width:0.00795169"
       d="m 3.5881046,74.92657 c -0.4053162,-0.116602 -0.7927812,-0.111775 -1.1447087,0.158717 -0.079354,0.06099 -0.1504194,0.132131 -0.21088,0.211914 -0.026362,0.03478 -0.055786,0.108858 -0.096155,0.127229 -0.065261,0.0297 -0.204013,-0.009 -0.2768338,-0.0092 -0.2576846,-4.6e-4 -0.5834786,0.02164 -0.7568147,0.241462 -0.21731863,0.275606 0.022436,0.636117 0.2144242,0.84966 0.4757131,0.529095 1.1797609,0.868448 1.8548948,1.059073 0.3879433,0.109535 0.8456586,0.188618 1.2411425,0.07586 0.2293808,-0.0654 0.4349001,-0.235977 0.401955,-0.496409 C 4.7871549,76.923668 4.6444217,76.730025 4.4950832,76.572778 4.4401442,76.514928 4.3003228,76.425566 4.27542,76.351787 4.261765,76.311327 4.293871,76.243867 4.30119,76.202709 4.318679,76.104349 4.322605,76.004391 4.313951,75.904901 4.2792307,75.505587 3.9954763,75.043765 3.5881033,74.92657 M 3.428659,76.413801 C 3.5520419,76.263552 3.6752208,76.146497 3.6989054,75.941619 3.7444188,75.547837 3.2628027,75.295712 2.9394721,75.473697 2.713851,75.597889 2.6883724,75.857561 2.6699224,76.084851 2.5683535,76.024304 2.4757803,75.941208 2.3978603,75.852782 c -0.025343,-0.02876 -0.068552,-0.07039 -0.073331,-0.110167 -0.010108,-0.08407 0.102333,-0.226058 0.1518083,-0.287706 0.2203453,-0.274565 0.6320161,-0.409568 0.9668493,-0.274046 0.2583083,0.104549 0.4646999,0.294662 0.5488554,0.567171 0.054528,0.176586 0.045371,0.358771 -0.010295,0.532883 -0.01412,0.04416 -0.028002,0.121822 -0.067286,0.15123 -0.035348,0.02647 -0.09746,0.02115 -0.1392458,0.02188 -0.1157253,0.002 -0.234807,-0.0087 -0.3465677,-0.04023 M 2.8557544,75.796505 c 0.088192,0.01162 0.1648428,0.119005 0.1853726,0.198072 0.011951,0.046 0.011369,0.11883 -0.054001,0.117364 -0.09306,-0.0021 -0.1726176,-0.129179 -0.192457,-0.20702 -0.011284,-0.04426 8.334e-4,-0.116354 0.061088,-0.108415 m 0.598516,0.258339 c 0.077965,0.02097 0.1066972,0.09132 0.028994,0.139965 -0.068353,0.0428 -0.1648332,0.05373 -0.2419066,0.03128 -0.077435,-0.02256 -0.084412,-0.092 -0.018341,-0.135433 0.062877,-0.04134 0.1584023,-0.05541 0.2312529,-0.03581 M 1.8229068,75.919512 c 0.261837,0.07848 0.1411424,0.496798 -0.1213835,0.419909 -0.2791114,-0.08175 -0.1590265,-0.503953 0.1213835,-0.419909 m 2.2689195,0.98369 c 0.264676,0.07935 0.1366344,0.49916 -0.1287134,0.416826 -0.2746725,-0.08521 -0.1482113,-0.499844 0.1287134,-0.416826 M 2.8219928,76.673626 c 0.2839079,0.07055 0.1682121,0.497172 -0.1131676,0.42095 -0.2616273,-0.07087 -0.1516343,-0.486752 0.1131676,-0.42095 M 1.1482723,76.91585 0.710582,77.280769 0.47449081,77.49042 0.66050402,77.701068 1.0845733,77.347577 1.3583657,77.110938 1.1482723,76.91585 m 2.4279445,1.156637 0.014425,0.361596 0.03186,0.551159 0.2809029,-0.0082 -0.00836,-0.31563 -0.032827,-0.568912 -0.286005,-0.02 M 2.266387,77.69528 1.9184581,78.497793 2.1810982,78.61166 2.529027,77.809148 Z"
       id="path8725" /><path
       style="fill:#ffffff;stroke:none;stroke-width:0.0116758"
       d="m 84.248561,30.175952 c -0.08307,0.03361 -0.02747,0.156995 0.05555,0.124164 0.08308,-0.03285 0.02625,-0.15726 -0.05555,-0.124164 m -1.204159,3.307077 c 0.01778,0.217648 0.10618,0.442139 0.159106,0.653844 0.10904,0.43616 0.220766,0.871551 0.329795,1.307688 0.04239,0.169579 0.07348,0.34788 0.129075,0.513559 0.01758,0.05234 0.09016,0.101265 0.126729,0.03347 0.03204,-0.05941 -0.0245,-0.182247 -0.0398,-0.243463 -0.05552,-0.222097 -0.110968,-0.444147 -0.169172,-0.66552 -0.136723,-0.520004 -0.263744,-1.042928 -0.394139,-1.564555 -0.03412,-0.136467 -0.06807,-0.272887 -0.104802,-0.408653 -0.01277,-0.04719 -0.04778,-0.125911 -0.03105,-0.174086 0.0277,-0.07982 0.163403,-0.159923 0.227771,-0.211168 0.239868,-0.190969 0.510968,-0.34927 0.793954,-0.466938 0.129904,-0.05402 0.261666,-0.10026 0.396977,-0.138615 0.04311,-0.01222 0.105747,-0.04283 0.150734,-0.02856 0.05245,0.01663 0.101381,0.0919 0.13621,0.132006 0.08926,0.102806 0.181978,0.203696 0.274533,0.303571 0.367845,0.396942 0.735259,0.796662 1.093157,1.202606 0.162947,0.184839 0.330506,0.365896 0.495695,0.548762 0.04089,0.04527 0.135755,0.179819 0.199295,0.09073 0.0393,-0.0551 -0.02643,-0.112052 -0.06088,-0.149111 -0.107144,-0.115251 -0.209622,-0.234858 -0.316572,-0.350273 -0.307225,-0.331534 -0.608682,-0.668696 -0.911658,-1.004118 -0.146251,-0.16192 -0.309489,-0.316869 -0.441695,-0.490383 0.102946,-0.05313 0.194612,-0.146368 0.280219,-0.223825 0.06884,-0.06229 0.133198,-0.130477 0.198442,-0.196503 0.304388,-0.308054 0.742112,-1.009105 0.140156,-1.262435 -0.293295,-0.123431 -0.656576,-0.06574 -0.957415,-0.0056 -0.103774,0.02076 -0.258314,0.09808 -0.361902,0.08462 -0.0475,-0.0062 -0.08379,-0.06072 -0.11726,-0.09081 -0.06641,-0.05968 -0.140214,-0.109197 -0.221385,-0.146651 -0.30419,-0.140356 -0.672759,-0.114427 -0.980766,0.0014 -0.435588,0.163739 -0.855251,0.495363 -0.975185,0.964128 -0.02473,0.09666 -0.0375,0.204162 -0.0256,0.30357 0.0064,0.05343 0.04248,0.146461 0.01865,0.196503 -0.04842,0.10172 -0.21037,0.190456 -0.290483,0.270575 -0.19914,0.199142 -0.3962,0.44166 -0.486285,0.712176 -0.118137,0.354758 0.07594,0.599891 0.427861,0.667797 0.451654,0.08716 0.87447,-0.06642 1.307688,-0.165737 m 1.179254,-2.650404 c -0.498299,0.16214 -0.979996,0.393644 -1.424445,0.670482 -0.20094,0.125164 -0.383562,0.279004 -0.58379,0.40369 -0.163438,-0.686146 0.602447,-1.249317 1.202606,-1.321174 0.238046,-0.0285 0.678958,-0.003 0.805629,0.247002 m -3.046702,-0.224166 c -0.06114,0.01989 -0.06025,0.130234 -0.09868,0.176957 -0.0352,0.04278 -0.304522,0.121065 -0.180479,0.19884 0.05193,0.03256 0.111918,0.02718 0.160497,0.0727 0.04771,0.04471 0.0691,0.225801 0.152334,0.19994 0.06048,-0.01879 0.06074,-0.132452 0.09868,-0.178579 0.0361,-0.0439 0.306315,-0.120247 0.180489,-0.19884 -0.05202,-0.03249 -0.111922,-0.02717 -0.160507,-0.0727 -0.04803,-0.045 -0.06868,-0.225539 -0.152334,-0.198318 m 3.899036,1.601907 c 0.115252,-0.363572 -0.38349,-0.291556 -0.583788,-0.240825 -0.53014,0.134272 -1.063373,0.440329 -1.471149,0.799454 -0.112801,0.09934 -0.400807,0.356297 -0.252268,0.52506 0.03589,0.04077 0.08766,0.06111 0.135509,0.08389 -0.101719,0.05528 -0.237345,0.07534 -0.350274,0.09808 -0.257987,0.05192 -0.531692,0.09591 -0.793953,0.0483 -0.287394,-0.05217 -0.41956,-0.266512 -0.31448,-0.543356 0.09185,-0.241981 0.274711,-0.438952 0.454589,-0.618817 0.380398,-0.380374 0.84151,-0.707763 1.319365,-0.954403 0.456675,-0.2357 0.924803,-0.437095 1.424445,-0.561971 0.283711,-0.07091 0.608683,-0.124593 0.899037,-0.06377 0.05652,0.01184 0.11169,0.02788 0.16346,0.05377 0.44124,0.220659 -0.02204,0.778283 -0.215115,1.000964 -0.04963,0.05724 -0.104299,0.110406 -0.15851,0.163286 -0.07509,0.07325 -0.160425,0.167361 -0.256868,0.210339 m -3.876361,-1.342716 0.05838,0.05838 v 0.01168 l -0.05838,0.05838 h -0.01167 l -0.05838,-0.05838 v -0.01168 l 0.07006,-0.05838 m 5.244156,0.338967 c -0.07971,0.04599 6.04e-4,0.164797 0.07494,0.114287 0.068,-0.04618 -3.52e-4,-0.157331 -0.07494,-0.114287 m -1.180982,0.0061 c -0.220568,0.05761 -0.119981,0.406728 0.105082,0.336136 0.209673,-0.06577 0.109542,-0.392191 -0.105082,-0.336136 m -0.875674,0.10508 c -0.218816,0.05733 -0.117552,0.405967 0.105071,0.336134 0.210899,-0.06614 0.109191,-0.392276 -0.105071,-0.336134 m 0.922971,0.02696 c 0.05009,0 0.04936,0.07586 0,0.07586 -0.0478,0 -0.04852,-0.07586 0,-0.07586 m -0.876233,0.105712 c 0.04504,-0.0065 0.05253,0.0628 0.0104,0.07294 -0.0508,0.01223 -0.06076,-0.0657 -0.0104,-0.07294 m -0.992488,0.20547 c -0.211694,0.03408 -0.170467,0.374431 0.0467,0.349375 0.233074,-0.02689 0.18428,-0.386573 -0.0467,-0.349375 m -2.13494,0.01434 c -0.074,0.03185 -0.02013,0.150793 0.05596,0.122491 0.08734,-0.03248 0.02747,-0.158406 -0.05596,-0.122491 m 2.150107,0.127442 c 0.04344,-0.01737 0.07078,0.04918 0.02804,0.06627 -0.04344,0.01737 -0.07078,-0.04918 -0.02804,-0.06627 m 2.650579,0.03935 c -0.0452,0.02892 -0.04394,0.119676 -0.07832,0.162911 -0.05454,0.06855 -0.114784,0.05634 -0.180484,0.09566 -0.02359,0.01413 -0.03726,0.03985 -0.03236,0.06751 0.01216,0.0686 0.155813,0.07635 0.203263,0.129403 0.04231,0.04732 0.03721,0.127278 0.07943,0.167583 0.0209,0.01995 0.05792,0.02093 0.08146,0.0049 0.0384,-0.02606 0.03356,-0.09886 0.05606,-0.137961 0.04435,-0.07705 0.245764,-0.101148 0.232009,-0.186404 -0.01192,-0.07396 -0.159433,-0.07321 -0.208342,-0.130115 -0.04023,-0.04678 -0.03124,-0.125305 -0.07164,-0.165248 -0.02012,-0.0199 -0.05726,-0.02354 -0.08108,-0.0083 m -1.171252,0.373248 -0.140109,-0.163461 c 0.126355,0.0054 0.190233,0.03325 0.140109,0.163461 m 1.202606,-0.102665 c 0.05652,0 0.05654,0.08857 0,0.08857 -0.05654,0 -0.05652,-0.08857 0,-0.08857 m -3.502736,0.155136 c -0.217754,0.03926 -0.165469,0.383246 0.05838,0.347191 0.221093,-0.03561 0.164337,-0.387356 -0.05838,-0.347191 m 0.01517,0.142071 c 0.04344,-0.01737 0.07078,0.04918 0.02804,0.06627 -0.04344,0.01737 -0.07078,-0.04918 -0.02804,-0.06627 m 1.24646,0.199936 c -0.10256,0.03639 0.0147,0.193118 0.0435,0.24769 0.125865,0.238537 0.255945,0.475006 0.384251,0.712223 0.03134,0.05794 0.101311,0.264912 0.189743,0.237462 0.111118,-0.03449 -0.02553,-0.21968 -0.05409,-0.272489 -0.130174,-0.240661 -0.254639,-0.484592 -0.387287,-0.723899 -0.03134,-0.05653 -0.08785,-0.232301 -0.176119,-0.200987 m 0.738226,0.318083 c -0.07286,0.04601 8.8e-5,0.159375 0.07577,0.114283 0.07798,-0.04647 -0.0014,-0.161289 -0.07577,-0.114283 m -2.571966,0.01726 c -0.23222,0.03335 -0.185975,0.381063 0.0467,0.344611 0.219166,-0.03433 0.170922,-0.375855 -0.0467,-0.344611 m 4.311028,0.03783 c -0.07399,0.03288 -0.02485,0.153852 0.05504,0.124161 0.08669,-0.03222 0.02844,-0.161266 -0.05504,-0.124161 m -3.435344,0.08468 0.03503,0.186813 c -0.13879,-0.0034 -0.114563,-0.09408 -0.05838,-0.186813 h 0.02335 m -0.872193,0.0194 c 0.04344,-0.01737 0.07078,0.04918 0.02804,0.06627 -0.04345,0.01737 -0.07079,-0.04918 -0.02804,-0.06627 m 1.376961,0.05102 c -0.08484,0.0508 0.05762,0.314698 0.08262,0.384927 0.141463,0.397491 0.284106,0.794678 0.429026,1.190931 0.03946,0.10786 0.07084,0.222622 0.119023,0.326863 0.01811,0.03918 0.05276,0.08203 0.10047,0.05613 0.09265,-0.05032 -0.05302,-0.322578 -0.07938,-0.394665 -0.144919,-0.396241 -0.28713,-0.793591 -0.429026,-1.19093 -0.03812,-0.106728 -0.0681,-0.225669 -0.119373,-0.3267 -0.01928,-0.03798 -0.05933,-0.0729 -0.103354,-0.04655 m 1.679118,0.116045 c -0.137494,0.0294 0.06318,0.246803 0.09725,0.292234 0.191961,0.255944 0.380174,0.514645 0.572113,0.770602 0.04056,0.05408 0.132847,0.240065 0.216796,0.21411 0.129018,-0.03989 -0.07076,-0.248378 -0.105759,-0.29584 -0.186625,-0.253201 -0.37547,-0.504815 -0.560846,-0.758926 -0.04019,-0.05508 -0.137401,-0.239751 -0.219563,-0.222179 m -2.496458,0.584467 c -0.07609,0.04618 0.0011,0.160215 0.0758,0.114282 0.07684,-0.04722 -8.9e-5,-0.160226 -0.0758,-0.114282 m -1.309686,0.429167 c -0.08204,0.02887 -0.04078,0.160378 0.04476,0.129729 0.08085,-0.02898 0.0377,-0.158744 -0.04476,-0.129729 m 3.702276,0.14311 c -0.07601,0.04229 -0.01324,0.162725 0.0666,0.115917 0.07294,-0.04276 0.0064,-0.156502 -0.0666,-0.115917 m -2.787174,0.01151 c -0.04327,0.02937 -0.03987,0.118765 -0.07279,0.162036 -0.04889,0.06424 -0.109625,0.06354 -0.176202,0.09321 -0.02841,0.01266 -0.04729,0.03874 -0.04164,0.07088 0.01255,0.07139 0.158996,0.07531 0.207521,0.13105 0.04105,0.04716 0.0337,0.126658 0.07341,0.165936 0.02034,0.02013 0.05903,0.02217 0.08266,0.0067 0.04046,-0.02647 0.03351,-0.100446 0.0589,-0.139759 0.04489,-0.06953 0.244643,-0.105818 0.230363,-0.186229 -0.01244,-0.07008 -0.161581,-0.07638 -0.209299,-0.131189 -0.04115,-0.04729 -0.03297,-0.125223 -0.07325,-0.165936 -0.01963,-0.01984 -0.05676,-0.02228 -0.07968,-0.0067 m 0.04164,0.244852 0.05838,0.05838 v 0.02335 l -0.0467,0.0467 -0.08173,-0.0467 v -0.02335 z"
       id="path8731" /><path
       style="fill:#ffffff;stroke:none;stroke-width:0.0107732"
       d="m 83.925715,80.752558 c -0.342188,0.282236 -0.56782,0.619044 -0.591675,1.076522 -0.0052,0.100826 0.0037,0.204731 0.022,0.303944 0.009,0.04913 0.04197,0.115474 0.03057,0.164977 -0.01484,0.06443 -0.10518,0.131417 -0.145927,0.182877 -0.10873,0.13731 -0.210648,0.281847 -0.302046,0.431239 -0.106481,0.174041 -0.207105,0.350798 -0.303335,0.530726 -0.04383,0.08195 -0.09506,0.167897 -0.03918,0.258617 0.06076,0.09839 0.175893,0.08433 0.275238,0.07802 0.241763,-0.01533 0.486692,-0.04798 0.722289,-0.104902 0.277969,-0.06717 0.538757,0.02049 0.823342,0.01597 0.521361,-0.0083 1.042467,-0.176702 1.446156,-0.511935 0.288341,-0.239455 0.520115,-0.556075 0.670162,-0.899052 0.06294,-0.143862 0.08186,-0.312625 0.149771,-0.451184 0.078,-0.159118 0.239637,-0.302122 0.341427,-0.449539 0.101699,-0.147297 0.414653,-0.505717 0.19807,-0.661219 -0.09105,-0.06537 -0.274951,-0.02065 -0.380464,-0.01615 -0.262966,0.01121 -0.526582,0.03816 -0.785626,0.08492 -0.112451,0.02031 -0.264364,0.09085 -0.376194,0.08368 -0.05503,-0.0035 -0.105415,-0.06815 -0.147518,-0.09911 -0.08909,-0.0655 -0.185566,-0.120266 -0.287508,-0.16323 -0.402748,-0.169731 -0.969938,-0.143541 -1.319568,0.144826 m 1.46976,0.358497 c -0.202,0.167739 -0.381471,0.356076 -0.595206,0.511092 -0.328687,0.238394 -0.698105,0.394318 -1.07608,0.534689 -0.08509,-0.166907 -0.05455,-0.416132 0.0015,-0.586551 0.172225,-0.52349 0.713743,-0.815454 1.245937,-0.68966 0.149705,0.03538 0.321853,0.110765 0.423826,0.23043 m 1.421716,-0.06356 0.0058,0.0091 c -0.134519,0.255255 -0.344944,0.48801 -0.543936,0.694585 -0.583834,0.606102 -1.356198,1.0912 -2.137375,1.397641 -0.337471,0.132387 -0.725399,0.256073 -1.090498,0.267923 0.01957,-0.08715 0.08789,-0.176285 0.134351,-0.252417 0.117444,-0.192429 0.26879,-0.495348 0.465172,-0.617356 0.09506,-0.05904 0.226764,-0.08076 0.331781,-0.119688 0.210782,-0.07814 0.41893,-0.166977 0.617162,-0.272907 0.290645,-0.155308 0.560818,-0.362629 0.804014,-0.583595 0.12356,-0.112277 0.247487,-0.286205 0.393397,-0.366487 0.08179,-0.045 0.193826,-0.05478 0.284374,-0.07359 0.2401,-0.0499 0.490858,-0.07579 0.735843,-0.08324 m -2.929151,1.574289 c -0.147102,0.17192 0.128959,0.378237 0.268992,0.206497 0.136801,-0.167775 -0.127295,-0.372112 -0.268992,-0.206497 m 1.75348,-1.097213 c -0.141452,0.165436 0.126702,0.376118 0.270152,0.208326 0.141449,-0.165435 -0.126705,-0.376115 -0.270152,-0.208326 m -0.785305,0.69473 c -0.143123,0.167396 0.126833,0.375958 0.270151,0.208325 0.140674,-0.164543 -0.126446,-0.376416 -0.270151,-0.208325 m 1.210281,0.18753 0.0058,0.0091 c -0.18015,0.253867 -0.370902,0.49509 -0.643809,0.656834 -0.258235,0.153059 -0.534774,0.214759 -0.826559,0.263226 l 0.15021,-0.08491 0.305219,-0.162136 z"
       id="path8721" /><path
       style="fill:#ffffff;stroke:none;stroke-width:0.00756477"
       d="M 1.8292427,49.703074 C 1.5490814,49.8553 1.2894449,50.01149 1.1146829,50.289701 c -0.49652135,0.790432 0.025778,1.828239 0.6923838,2.328153 0.2982208,0.223647 0.6408193,0.38619 1.005665,0.464242 0.164884,0.03527 0.3704202,0.05776 0.5249551,-0.02593 0.3086526,-0.167177 0.5042564,-0.562699 0.620502,-0.876598 0.082986,-0.224078 0.1384885,-0.456332 0.161524,-0.694312 0.077277,-0.79843 -0.3469812,-1.827081 -1.2263345,-1.965648 -0.1681915,-0.02651 -0.3399644,-0.02082 -0.5075013,0.0081 -0.1853458,0.03199 -0.3903519,0.08503 -0.5566346,0.175377 M 1.594804,51.348388 c 0.2693988,-0.150805 0.6491406,-0.0031 0.8513065,0.196977 0.1414966,0.140075 0.2272998,0.38254 0.018613,0.505441 C 2.1984098,52.207657 1.7977008,52.028026 1.6076652,51.827309 1.48552,51.698296 1.3983945,51.458342 1.5948042,51.348389 m 1.6803893,-0.646372 c 0.2428073,-0.131608 0.4183124,0.05287 0.4244771,0.296387 0.00664,0.262544 -0.1406643,0.593681 -0.3817423,0.720895 -0.042333,0.02235 -0.087423,0.04167 -0.1350955,0.04914 -0.2109037,0.03305 -0.2921446,-0.191351 -0.295114,-0.360495 -0.00459,-0.261566 0.1526017,-0.578617 0.3874755,-0.705926 z"
       id="path8723" /><path
       style="fill:#ffffff;stroke:none;stroke-width:0.00623975"
       d="m 84.57169,50.849557 c -0.15368,-0.04464 -0.29772,-0.07921 -0.459885,-0.06996 -0.08547,0.0049 -0.175025,0.02249 -0.254918,0.05366 -0.454727,0.177465 -0.519482,0.739678 -0.382447,1.153816 0.02837,0.08575 0.06869,0.171091 0.123933,0.242997 0.02977,0.03876 0.08854,0.07732 0.107776,0.120997 0.01739,0.03949 0.0043,0.100724 0.0098,0.14391 0.0099,0.07733 0.03466,0.154673 0.06996,0.224074 0.04673,0.09185 0.11029,0.176327 0.18416,0.248137 0.03134,0.03046 0.107897,0.0737 0.123133,0.113805 0.01104,0.02907 -0.02504,0.08201 -0.03663,0.108431 -0.04296,0.09796 -0.0797,0.202996 -0.130863,0.29691 -0.02616,0.04799 -0.10228,0.08178 -0.154722,0.05908 -0.0837,-0.03621 -0.16598,-0.133296 -0.236201,-0.191616 -0.06213,-0.05161 -0.122267,-0.108059 -0.204141,-0.124889 -0.175446,-0.03607 -0.354366,0.133181 -0.428229,0.278803 -0.03723,0.07338 0.01955,0.103963 0.07867,0.129887 l 0.377154,0.165393 1.142892,0.50119 0.348581,0.152863 c 0.05098,0.02236 0.111763,0.06203 0.167148,0.0694 0.06883,0.0092 0.0867,-0.07257 0.09742,-0.123709 0.02579,-0.122949 0.02958,-0.290247 -0.05515,-0.392163 -0.110202,-0.132554 -0.346865,-0.119983 -0.503663,-0.141038 -0.08046,-0.0108 -0.163447,-0.05528 -0.14085,-0.155171 0.01667,-0.07369 0.06296,-0.148836 0.09329,-0.217998 0.02237,-0.05102 0.04422,-0.148297 0.08558,-0.185759 0.02589,-0.02346 0.09805,0.0024 0.129847,0.0052 0.101103,0.0093 0.208966,0.0046 0.30792,-0.01855 0.09274,-0.02166 0.179097,-0.05872 0.257679,-0.112558 0.03624,-0.02483 0.07211,-0.07594 0.113171,-0.08998 0.064,-0.02189 0.157818,7.91e-4 0.227761,-0.01278 0.167284,-0.03235 0.321353,-0.118 0.45371,-0.223296 0.140634,-0.111878 0.283339,-0.262414 0.345178,-0.43458 0.150979,-0.420325 -0.172179,-0.808313 -0.524782,-0.992621 -0.228808,-0.1196 -0.501152,-0.06546 -0.726608,-0.176435 -0.06951,-0.03422 -0.129048,-0.09642 -0.188251,-0.145588 -0.122542,-0.101774 -0.261823,-0.21474 -0.417449,-0.25995 m -0.03513,0.126728 c 0.237202,0.07229 0.376954,0.300851 0.593535,0.402206 0.152388,0.07133 0.321466,0.06097 0.482897,0.09517 0.287705,0.06094 0.567517,0.249422 0.680358,0.530258 0.166453,0.414193 -0.248252,0.8091 -0.611868,0.929402 -0.0652,0.02157 -0.13529,0.03294 -0.204,0.03016 -0.03975,-0.0016 -0.08636,-0.02103 -0.12509,-0.0079 -0.03302,0.01121 -0.05072,0.04437 -0.07452,0.06762 -0.0361,0.03526 -0.07795,0.06565 -0.122433,0.08939 -0.187059,0.09982 -0.424593,0.09239 -0.622857,0.03241 -0.283579,-0.0858 -0.562221,-0.279028 -0.662868,-0.568979 -0.01941,-0.05591 -0.02735,-0.116215 -0.02681,-0.175279 3.13e-4,-0.03513 0.0142,-0.07387 -6.54e-4,-0.107394 -0.02194,-0.04953 -0.09228,-0.08471 -0.127123,-0.127546 -0.07037,-0.08652 -0.11379,-0.196082 -0.138122,-0.304088 -0.07533,-0.334383 -0.0363,-0.775476 0.3359,-0.908164 0.071,-0.02531 0.148299,-0.04 0.223583,-0.0438 0.139649,-0.007 0.26823,0.02635 0.400068,0.06653 m -0.119531,0.241505 c -0.186061,-0.05404 -0.384663,-0.08432 -0.565808,0.0079 -0.06562,0.0334 -0.128225,0.08704 -0.159551,0.154874 -0.01766,0.03828 -0.02215,0.08264 0.02235,0.104172 0.07349,0.03558 0.122072,-0.09369 0.176457,-0.126005 0.104813,-0.06229 0.239126,-0.0702 0.356685,-0.04877 0.305675,0.0557 0.462552,0.322381 0.7332,0.441069 0.216538,0.09496 0.472281,0.0503 0.682192,0.153424 0.14901,0.07321 0.28116,0.191494 0.335829,0.351403 0.02276,0.06658 -0.04542,0.25035 0.06048,0.2513 0.07607,7.04e-4 0.08875,-0.124893 0.08737,-0.17965 -0.0042,-0.170182 -0.112069,-0.317166 -0.238834,-0.422052 -0.100367,-0.08305 -0.219368,-0.144592 -0.346833,-0.172389 -0.185882,-0.04054 -0.373012,-0.03469 -0.54935,-0.114537 -0.218649,-0.09902 -0.355337,-0.331361 -0.594182,-0.40073 m -0.09643,0.250965 c -0.182102,-0.04364 -0.396755,0.08094 -0.480888,0.242446 -0.03251,0.06236 -0.06068,0.130486 -0.03134,0.200059 0.04082,0.09684 0.159434,0.126625 0.247666,0.160793 0.07296,0.02826 0.139908,0.06278 0.216784,0.08052 0.200657,0.04633 0.337304,-0.108729 0.334805,-0.302214 -0.0022,-0.168607 -0.11764,-0.341021 -0.287025,-0.381609 m 1.217272,0.533556 c -0.219597,-0.06093 -0.591022,0.140752 -0.48586,0.410218 0.05069,0.12988 0.197577,0.179366 0.312696,0.23325 0.06164,0.02884 0.116505,0.06183 0.183611,0.07849 0.151454,0.03755 0.236178,-0.10391 0.250821,-0.235542 0.02202,-0.197909 -0.05008,-0.427796 -0.261274,-0.486396 m -1.190511,0.0269 c 0.02872,-0.0655 0.04537,-0.12549 0.01629,-0.195209 -0.05496,-0.131752 -0.227958,-0.154727 -0.325307,-0.05614 -0.03288,0.0333 -0.04255,0.07562 -0.0553,0.118831 -0.08216,-0.03691 -0.04507,-0.106014 1.5e-5,-0.163515 0.06559,-0.08365 0.192128,-0.162261 0.302053,-0.136887 0.115807,0.02673 0.19314,0.149526 0.190133,0.264151 -0.0021,0.08065 -0.03612,0.168638 -0.127883,0.168761 m 0.440374,-0.211729 c -0.06078,-0.0081 -0.09929,0.06585 -0.05502,0.109993 0.04588,0.04575 0.144694,0.06851 0.203833,0.09444 0.02488,0.01091 0.0542,0.02966 0.08183,0.03083 0.05884,0.0025 0.08994,-0.06936 0.04852,-0.110654 -0.02127,-0.02121 -0.05644,-0.03085 -0.08345,-0.04269 -0.05938,-0.02604 -0.131283,-0.07336 -0.195721,-0.08193 m 0.761078,0.765906 c 0.02315,-0.03865 0.04772,-0.07443 0.04995,-0.121176 0.0068,-0.14264 -0.133822,-0.252832 -0.269506,-0.19876 -0.06659,0.02655 -0.09746,0.07956 -0.124717,0.14171 -0.06264,-0.0682 -0.01958,-0.15131 0.03738,-0.208451 0.0807,-0.08099 0.226231,-0.105357 0.323243,-0.03902 0.09313,0.06367 0.121023,0.210005 0.103924,0.314921 -0.01175,0.07212 -0.03746,0.146213 -0.120271,0.110779 m -1.359904,-0.736448 c 0.08732,0.01271 0.07038,0.14381 -0.01618,0.130043 -0.08119,-0.0129 -0.06381,-0.141688 0.01618,-0.130043 m 0.548105,0.241843 c -0.05386,-0.0055 -0.08687,0.05717 -0.0576,0.100714 0.02439,0.03628 0.12561,0.07868 0.168743,0.08057 0.05165,0.0022 0.0909,-0.05803 0.05759,-0.101811 -0.02648,-0.03479 -0.125647,-0.07512 -0.168728,-0.07948 m 0.668935,0.292413 c 0.08614,0.0099 0.0743,0.139804 -0.0099,0.130797 -0.08281,-0.0089 -0.07314,-0.140363 0.0099,-0.130797 m -0.790855,-0.06124 c -0.07972,-0.02214 -0.159129,0.0069 -0.203465,0.07819 -0.02256,0.03625 -0.04376,0.08251 -0.0045,0.116232 0.07562,0.06482 0.09496,-0.05963 0.152409,-0.06463 0.04276,-0.0037 0.03499,0.08425 0.0855,0.09691 0.03499,0.0088 0.0682,-0.03731 0.09746,-0.02064 0.05697,0.03248 -0.03674,0.132218 0.05219,0.161042 0.103696,0.03361 0.113252,-0.144293 0.08773,-0.202816 -0.03478,-0.07981 -0.10398,-0.08422 -0.173376,-0.114656 -0.03318,-0.01455 -0.05833,-0.03971 -0.09406,-0.04964 m -0.411202,0.331764 c -0.107747,-0.01702 -0.06584,0.104221 -0.02266,0.144871 0.122133,0.114981 0.286773,0.196454 0.450111,0.232079 0.05386,0.01174 0.120009,0.02857 0.175219,0.01964 0.0554,-0.009 0.08666,-0.07686 0.03734,-0.11593 -0.03692,-0.02924 -0.106958,-0.01907 -0.151574,-0.02723 -0.08984,-0.01643 -0.180096,-0.04571 -0.260167,-0.09035 -0.04962,-0.02765 -0.09814,-0.0613 -0.140507,-0.09909 -0.02492,-0.02222 -0.05303,-0.05851 -0.08776,-0.06398 m 0.256039,0.61247 c -0.08547,0.194904 -0.285746,0.480247 -0.09624,0.670039 0.09523,0.09537 0.2994,0.083 0.426063,0.100475 0.07028,0.0097 0.151883,0.01613 0.184672,0.0902 0.01755,0.03964 0.02216,0.08819 0.02273,0.131159 5.04e-4,0.03896 -0.002,0.07922 -0.01475,0.116171 l -1.931454,-0.847019 c 0.01883,-0.03494 0.04593,-0.06326 0.07544,-0.08956 0.03262,-0.02906 0.07005,-0.05791 0.111898,-0.07212 0.07671,-0.02604 0.136704,0.0296 0.191453,0.07474 0.09831,0.08105 0.228603,0.239937 0.362532,0.245347 0.267845,0.01083 0.342309,-0.330012 0.427681,-0.524693 z"
       id="path8848" /><g
       id="g8846"
       transform="matrix(0.10101486,-0.04215104,0.04215104,0.10101486,86.476526,108.02446)"
       style="fill:#ffffff"><path
         style="fill:#ffffff;stroke:none;stroke-width:0.175172"
         d="m -107.47477,36.909638 c -3.58753,0.472426 -6.87745,1.326392 -9.98483,3.265288 -1.62858,1.016158 -3.23473,3.307133 -5.08,3.732013 -2.16846,0.499294 -5.34083,1.714535 -7.53242,1.585749 -0.92246,-0.05422 -1.89098,-0.857995 -2.80276,-1.117951 -2.15353,-0.613979 -4.58904,-0.2238 -6.48138,0.950748 -2.23499,1.387243 -2.12153,3.297761 -3.47845,5.10689 -0.66429,0.885689 -2.09795,1.380113 -3.00292,1.998279 -0.71418,0.48775 -2.2385,1.265165 -2.21129,2.272932 0.0308,1.141599 1.60165,2.140257 2.38646,2.787344 2.63019,2.168284 5.55675,4.012674 8.58345,5.575037 12.61802,6.51256 27.75835,8.034984 41.691035,6.301477 8.884574,-1.105338 17.849194,-3.968881 25.400004,-8.829916 1.77134,-1.140372 3.49644,-2.391278 5.08,-3.782673 0.57176,-0.502394 1.48809,-1.213244 1.51051,-2.051794 0.0279,-1.03632 -1.48021,-1.773972 -2.2112,-2.272407 -0.89776,-0.61214 -2.34048,-1.130843 -3.00298,-2.000154 -0.42217,-0.554105 -0.43951,-1.40236 -0.7324,-2.033822 -0.6082,-1.31113 -1.67465,-2.448332 -2.92117,-3.174719 -1.91849,-1.117986 -4.33955,-1.450586 -6.48138,-0.817618 -0.86606,0.255962 -1.73824,1.036075 -2.62759,1.088347 -2.21278,0.13003 -5.53405,-1.091167 -7.70759,-1.646569 -1.73963,-0.444517 -3.34001,-2.694765 -4.90482,-3.671193 -3.862557,-2.41018 -8.908749,-3.868347 -13.488279,-3.265288 m 18.743449,11.662213 c -3.00789,1.983722 -8.24747,3.758412 -11.911729,3.450458 -1.73858,-0.146093 -3.22282,-1.492206 -5.08,-1.492206 -1.85718,0 -3.34141,1.346113 -5.08,1.492206 -3.65515,0.307183 -8.91119,-1.471641 -11.91172,-3.450458 0.87936,-2.319423 3.31233,-4.402206 5.25517,-5.845574 7.38667,-5.487766 18.57178,-5.020704 25.224829,1.468821 1.2996,1.267688 2.8462,2.643229 3.50345,4.376753 m -43.267589,-1.576552 c -1.61776,3.118104 -5.34022,3.328276 -8.40828,3.328276 0.40109,-3.915874 5.47654,-4.994761 8.40828,-3.328276 m 60.959999,3.328276 c -3.04449,0 -6.80772,-0.24335 -8.40827,-3.328276 2.93168,-1.666485 8.00713,-0.587598 8.40827,3.328276 m -52.902069,-4.028966 c -0.30445,0.804445 -1.35969,1.889638 -1.10218,2.795735 0.27835,0.978846 1.85647,1.565043 2.67873,1.977171 2.87844,1.442772 6.23439,2.504632 9.45931,2.759508 -0.46893,1.052436 -2.17231,2.423686 -1.91428,3.67792 0.27537,1.339544 2.55331,2.121864 3.66601,2.547533 3.55547,1.360389 7.89064,1.272102 11.386204,-0.220542 1.004089,-0.428822 2.883864,-1.116549 3.160811,-2.326991 0.277824,-1.214295 -1.477404,-2.651935 -1.934604,-3.67792 3.232106,-0.255401 6.574918,-1.313758 9.459308,-2.759508 0.82226,-0.412128 2.40039,-0.998325 2.67874,-1.977171 0.2575,-0.906097 -0.79774,-1.99129 -1.10219,-2.795735 1.70005,0.228916 4.27982,0.545435 5.7644,1.425834 2.04619,1.213559 2.95919,3.242669 5.44664,4.062231 3.52394,1.16113 7.30662,-0.320338 9.98483,2.920211 -5.51846,3.220896 -11.8343,5.184403 -18.04276,6.555653 -13.792728,3.046424 -28.772419,3.160986 -42.566899,0.03959 -6.26981,-1.418546 -12.63351,-3.335808 -18.21794,-6.595242 2.67822,-3.240549 6.46085,-1.759081 9.98483,-2.920211 2.48745,-0.819562 3.40045,-2.848672 5.44664,-4.062231 1.48459,-0.880399 4.06435,-1.196918 5.7644,-1.425834 m 25.049656,10.86069 c -4.069956,2.374988 -9.591216,2.376389 -13.663446,0 2.25237,-5.82387 11.41126,-5.823169 13.663446,0 m -37.486896,3.67862 c 15.20689,4.948095 31.53209,5.889122 47.296549,3.455276 4.86472,-0.750964 9.42673,-2.353616 14.18897,-3.455276 v 0.175173 c -3.67967,1.532058 -7.17944,3.205129 -11.03586,4.304511 -11.586608,3.302526 -24.530969,3.528498 -36.260689,0.836624 -5.07878,-1.165597 -9.58895,-3.153104 -14.36415,-5.141135 l 0.17518,-0.175173 m 4.76714,8.013613 c -0.86185,0.372416 -0.95364,1.880301 -1.15404,2.671905 -0.6512,2.571531 -1.30771,5.157076 -2.03655,7.707586 -3.10189,10.855084 -5.55169,21.896206 -8.63427,32.757246 -0.83881,2.95533 -1.60447,5.9499 -2.33605,8.93379 -0.18067,0.73695 -0.47461,2.77578 0.97792,2.33645 1.05668,-0.31969 1.15507,-2.14867 1.38868,-3.03714 0.78311,-2.97846 1.61579,-5.94605 2.36294,-8.93379 2.70939,-10.83477 5.69839,-21.605594 8.53834,-32.406901 0.70437,-2.679087 1.49317,-5.355721 2.10137,-8.057931 0.18971,-0.84328 0.18708,-2.574159 -1.20834,-1.971215 m 51.138789,0.04992 c -0.90985,0.520612 -0.32722,1.855601 -0.13576,2.62198 0.6583,2.633017 1.35443,5.262881 2.06318,7.882759 2.96357,10.955283 5.84095,21.940868 8.66736,32.932418 0.75201,2.92468 1.5832,5.83009 2.3198,8.75862 0.20478,0.81403 0.60838,2.81642 1.90921,2.06809 0.93752,-0.53953 0.30672,-1.98348 0.10475,-2.76878 -0.6611,-2.57118 -1.31765,-5.15357 -2.04251,-7.70758 -3.08198,-10.8586 -5.58467,-21.881846 -8.60692,-32.75725 -0.82401,-2.964969 -1.60878,-5.948505 -2.35589,-8.933794 -0.20671,-0.825237 -0.60768,-2.849004 -1.92322,-2.096463 m -26.100689,5.08 c -1.09623,0.627292 -0.12473,2.308072 0.98517,1.687786 1.09675,-0.613279 0.10755,-2.312977 -0.98517,-1.687786 m 0.16816,6.263115 c -1.24004,0.448616 -0.84783,3.222646 0.66285,2.675933 1.24811,-0.451419 0.82244,-3.213187 -0.66285,-2.675933 m 0,6.656551 c -1.25196,0.452996 -1.1691,4.882406 0.66285,4.223583 1.27351,-0.458076 1.12373,-4.869969 -0.66285,-4.223583"
         id="path8735"
         sodipodi:nodetypes="csssssscsccccscscccscssccssccccccccccccccccccscscccccccccccccccccccccccccsscscccccccccccccccccccccccc" /><path
         style="fill:#ffffff;stroke:none;stroke-width:0.0706591"
         d="m -102.14977,95.473414 c -0.97481,0.2808 -1.81685,1.15513 -1.9078,2.19043 -0.91546,-0.16993 -1.56376,0.33492 -2.40242,0.33386 -0.28948,-3.4e-4 -0.57142,-0.2237 -0.8479,-0.29923 -0.56556,-0.15454 -1.13988,-0.12839 -1.69582,0.0513 -0.58244,0.18831 -1.10575,1.01913 -1.62793,1.09027 -0.36473,0.0498 -0.741,-0.15077 -1.12778,-0.0952 -0.38086,0.0547 -0.83039,0.40565 -1.20121,0.35252 -0.64308,-0.0923 -1.06434,-0.47625 -1.76649,-0.32646 -0.74524,0.159 -1.02084,0.78525 -1.63742,1.04068 -0.78477,0.325086 -1.48227,0.16867 -2.17179,0.832146 -0.74497,0.71677 -0.48391,1.53663 -0.92692,2.29827 -0.28056,0.48232 -0.74464,0.71478 -0.93433,1.29305 -0.15105,0.46056 0.075,1.09007 -0.11681,1.48385 -0.23604,0.48451 -0.68131,0.81731 -0.89338,1.34252 -0.56825,1.40726 -0.1026,3.36515 1.31053,4.09824 -0.26031,0.63467 -0.48173,1.27971 -0.41192,1.97846 0.18735,1.87487 2.01368,3.49813 3.94487,3.03835 v 3.53297 c 0,0.56371 -0.0891,1.21512 0.0374,1.76648 0.16935,0.73789 0.68286,1.52552 1.04099,2.19007 0.41365,0.7675 1.63725,0.49526 2.38391,0.49498 0.35542,-1.5e-4 0.82134,0.0343 0.98753,-0.36072 0.25996,-0.61798 -0.63996,-1.77489 -0.89836,-2.32433 -0.43074,-0.91596 -0.15983,-2.39111 -0.15983,-3.39164 0,-0.31366 -0.11171,-0.90105 0.0727,-1.17062 0.12895,-0.18852 0.43443,-0.20209 0.63397,-0.26794 0.27041,-0.0892 0.60716,-0.37047 0.88861,-0.37047 0.33859,0 0.74318,0.35563 1.08984,0.43625 1.04583,0.24307 2.2476,-0.0561 2.89704,-0.95899 h 0.0706 c 0.86741,0.87604 1.73107,0.18004 2.68504,0.22598 0.39032,0.0187 0.82099,0.47913 1.20121,0.61558 1.22742,0.44034 2.44975,0.14859 3.4623,-0.62958 v 3.67429 c 0,0.5854 -0.0939,1.26465 0.0374,1.83714 0.165772,0.72206 0.666392,1.46392 1.005342,2.1197 0.42934,0.83054 1.5461,0.56542 2.34893,0.56535 0.37026,0 0.88282,0.0561 1.0582,-0.36072 0.30595,-0.72737 -0.8169,-1.91535 -1.01318,-2.60698 -0.36659,-1.29171 -0.045,-3.10716 -0.045,-4.45153 1.14567,-0.15439 2.157224,-0.9734 2.581526,-2.04912 0.143093,-0.36268 0.100948,-0.92881 0.317188,-1.24148 0.150858,-0.21812 0.551012,-0.27981 0.775568,-0.40756 0.435541,-0.24773 0.788268,-0.60046 1.035992,-1.036 0.535608,-0.94147 0.09874,-1.59047 0.199057,-2.52359 0.03475,-0.32257 0.505143,-0.61319 0.687651,-0.86805 0.339874,-0.47449 0.525843,-1.05028 0.600603,-1.62517 0.0753,-0.5799 -0.03917,-1.2371 -0.285111,-1.76649 -0.122049,-0.26256 -0.394141,-0.53078 -0.440561,-0.81795 -0.05254,-0.32566 0.154112,-0.75415 0.180825,-1.08984 0.437872,0.14244 0.877371,0.32941 1.342521,0.35053 2.696999,0.12247 2.19602,-3.16701 1.40549,-4.802056 -0.205759,-0.42559 -0.613388,-0.82672 -0.768203,-1.25986 -0.09364,-0.262 0.301991,-0.58209 0.427763,-0.78927 0.275513,-0.45363 0.432935,-1.02189 0.415765,-1.55449 -0.0353,-1.0914 -0.686672,-2.086017 -1.69278,-2.519862 -0.337971,-0.145741 -0.807644,-0.110051 -1.111125,-0.307438 -0.591487,-0.384626 -0.652457,-1.141396 -1.432616,-1.450103 -0.77605,-0.307094 -1.234277,0.09709 -1.958322,0.06909 -0.236771,-0.0097 -0.462531,-0.302653 -0.656071,-0.42215 -0.36078,-0.22279 -0.77795,-0.352396 -1.20121,-0.380019 -0.59763,-0.03903 -1.22353,0.16007 -1.69574,0.525636 -0.23523,0.18208 -0.43117,0.532077 -0.71303,0.636211 -0.50824,0.187831 -1.18912,-0.08688 -1.760122,0.110741 -1.71454,0.593446 -2.21212,2.374924 -1.62516,3.949784 m 6.500652,3.95691 c 0.33542,0.24209 0.56654,0.55737 0.55609,0.989226 -0.008,0.33974 -0.21389,0.67862 0.0401,0.97878 0.30681,0.36263 0.772025,0.14606 1.170262,0.15567 0.528312,0.0124 0.997213,0.28538 1.312912,0.70276 0.682148,0.90162 -0.163573,1.48569 -0.01462,2.3317 0.05613,0.31945 0.391948,0.57714 0.55581,0.8479 0.369194,0.61001 0.447126,1.38117 0.186687,2.04912 -0.262012,0.67197 -1.266713,1.00816 -1.40789,1.62545 -0.06688,0.29217 0.22137,0.58837 0.316913,0.84763 0.181873,0.49362 0.144914,1.11061 -0.151437,1.55449 -0.501034,0.7504 -1.43183,0.47872 -1.897197,1.06759 -0.24752,0.31325 -0.0698,0.82022 -0.12357,1.19351 -0.10288,0.71331 -0.55127,1.3173 -1.17999,1.65923 -0.8046,0.43744 -1.84648,0.29132 -2.54092,-0.28264 -0.33287,-0.27516 -0.66193,-1.16015 -1.202972,-0.97927 -0.34729,0.11612 -0.50148,0.5445 -0.73069,0.79733 -0.33124,0.36537 -0.83251,0.6201 -1.31949,0.69188 -0.63155,0.0931 -1.25908,-0.0712 -1.76542,-0.45645 -0.23516,-0.17884 -0.42036,-0.50274 -0.70871,-0.59729 -0.48932,-0.16039 -1.10427,0.54882 -1.69476,0.5031 -0.5845,-0.0452 -0.96238,-0.75811 -1.48356,-0.74397 -0.34709,0.01 -0.48056,0.37865 -0.66378,0.60922 -0.28455,0.35818 -0.64745,0.60773 -1.10299,0.68363 -0.40177,0.067 -0.85943,-0.011 -1.20121,-0.23854 -0.26348,-0.17524 -0.49978,-0.55405 -0.84791,-0.55405 -0.3333,-7e-5 -0.58774,0.35888 -0.84792,0.5236 -0.37985,0.24037 -0.82819,0.32106 -1.27185,0.28545 -0.74899,-0.0603 -1.2776,-1.03601 -1.90781,-1.00936 -0.29296,0.0124 -0.5691,0.26327 -0.84791,0.3487 -0.72803,0.223 -1.51408,0.0847 -2.11874,-0.37577 -0.78756,-0.59968 -1.05566,-1.71716 -0.69923,-2.63127 0.13694,-0.35126 0.65316,-0.79958 0.47046,-1.19987 -0.15743,-0.34497 -0.61752,-0.47427 -0.90177,-0.69105 -0.42967,-0.32757 -0.72061,-0.82982 -0.81613,-1.35941 -0.12632,-0.70066 0.0677,-1.44746 0.55372,-1.97189 0.2357,-0.25431 0.66458,-0.42883 0.76678,-0.78411 0.11391,-0.39597 -0.27692,-0.83052 -0.19944,-1.27158 0.12287,-0.69918 0.81971,-0.676 1.09428,-1.20432 0.1433,-0.27571 0.006,-0.62024 0.016,-0.91546 0.0194,-0.53001 0.28268,-0.99453 0.70355,-1.31292 0.60273,-0.45603 1.37441,-0.004 1.90011,-0.36473 0.42437,-0.29127 0.43448,-0.84509 0.99686,-1.021236 0.8229,-0.25778 1.02739,0.514736 1.69583,0.632956 0.46903,0.083 0.84465,-0.619536 1.34252,-0.676426 0.53998,-0.0616 1.0199,0.578136 1.48278,0.425716 0.35845,-0.11805 0.42862,-0.515936 0.61572,-0.792356 0.25473,-0.37634 0.63234,-0.6594 1.08116,-0.74418 0.82735,-0.15638 1.13323,0.419 1.83714,0.55912 0.37648,0.075 0.73154,-0.3145 1.05989,-0.44247 0.39612,-0.15447 0.85399,-0.19211 1.27187,-0.1168 0.28426,0.051 0.63311,0.24823 0.91547,0.1055 0.52025,-0.26299 0.29344,-1.03185 0.52894,-1.48089 0.39754,-0.75789 1.00244,-0.79929 1.73519,-0.93467 0.242,-0.0447 0.48861,-0.21607 0.51962,-0.47877 0.0429,-0.36379 -0.35916,-0.63657 -0.52195,-0.91934 -0.30024,-0.52156 -0.28109,-1.25836 0.0421,-1.764413 0.40049,-0.62704 1.152372,-0.894458 1.868092,-0.730209 0.28263,0.06482 0.6254,0.335599 0.9175,0.214488 0.52182,-0.216378 0.58499,-0.97712 1.13169,-1.251791 0.54725,-0.275003 1.25342,-0.147286 1.67249,0.295716 0.21078,0.222777 0.3285,0.58764 0.66025,0.659766 0.587321,0.127565 0.995377,-0.662731 1.694764,-0.493863 0.932273,0.225121 0.54351,1.081406 1.0796,1.551135 0.326097,0.285751 0.858229,0.05944 1.25215,0.143601 0.966266,0.20645 1.550127,1.21143 1.268754,2.15385 -0.310404,1.03983 -1.619648,1.55459 -2.540625,0.93963 -0.352728,-0.23551 -0.616711,-0.89107 -1.060168,-0.93985 -0.543372,-0.0597 -1.096204,1.04901 -1.723585,0.55285 -0.50777,-0.4016 0.211271,-2.11343 -0.82014,-2.13734 -0.52684,-0.0124 -1.09812,0.95322 -1.41899,1.30208 -1.05076,1.14263 -2.07639,2.3085 -3.114862,3.4623 -0.31352,0.34835 -1.05381,0.90783 -1.06647,1.412906 -0.017,0.67995 1.12709,0.63607 1.573022,0.63621 1.56483,6.4e-4 3.03319,-0.32009 4.02757,-1.625166 m -0.42395,-3.32097 c 0,1.01685 -0.0346,2.42021 -0.85448,3.15641 -0.68638,0.61636 -1.7375,0.65918 -2.60783,0.65918 l 1.75455,-1.97845 1.70776,-1.83714 m 5.794065,1.90779 c 0.736966,0.99431 1.397711,2.036106 1.412895,3.320986 0.0055,0.51383 8e-4,1.27483 -0.70631,1.23498 -1.849498,-0.1044 -2.550168,-2.07371 -4.380869,-2.15356 -0.09985,-1.223396 -1.429791,-1.727676 -1.059891,-2.897016 0.619895,0.11515 1.235834,-0.33408 1.766476,-0.22526 0.320512,0.0658 0.620821,0.4125 0.918578,0.55926 0.69154,0.34087 1.319063,0.31119 2.049121,0.16061 m -2.118433,0.75012 c -0.675929,0.16131 -0.386791,1.21865 0.278243,1.03784 0.667516,-0.18153 0.38919,-1.19718 -0.278243,-1.03784 m -22.965604,17.338636 1.01728,0.66548 0.0426,1.17166 v 2.82637 h -1.13054 v -3.17966 l 0.0706,-1.48385 m 17.452822,0.63594 v 4.02757 h -1.13054 v -4.38087 l 1.13054,0.3533 m -15.615702,6.28867 c -0.97022,0 -1.17937,-0.22949 -1.5545,-1.13054 0.97023,0 1.17938,0.22949 1.5545,1.13054 m 16.392952,0 c -0.97022,0 -1.17937,-0.22949 -1.5545,-1.13054 0.97022,0 1.17937,0.22949 1.5545,1.13054 z"
         id="path8795" /></g></g></svg>
